<svg width="684" height="551" viewBox="0 0 684 551" fill="none" xmlns="http://www.w3.org/2000/svg">
<path d="M551 182.5L548.5 185L546 188.5L543.5 190.5L541 192.5L537.5 195.5L535.5 197L533.5 198.5L532.5 200.5L533.5 203.5L532.5 201.5L530.5 201H528L525.5 202.5L523 205.5L520 208.5L516 212.5L512.5 216.5L515.5 212L512.5 214L509 216.5L505 219H501H494L497.706 217.5L498.5 216L498 215.5H493.5H488.5L493.5 213L491.5 213.5L486.5 214.5L480.5 216L475.5 216.5L470 217L467 217.5L468 215.5L466 216L466.5 215L467.5 212L468 209L468.5 204.5V201.5V199.5L468 198L467.5 196L468 197L469 198.5L469.5 200L471.5 202L471 200.5L473 201L471 198L473 198.5L471.5 197L469 194.5H470.5L473 196.5L472.5 194.5L474.5 196L474 194.5L475 195L476.268 196L477.5 195.5L477 195L476 194L474.5 193L473 192.5L469.5 193L470.5 192.5L471.5 192H472.5L473 191.5L474 192L474.5 191.5L476.268 193V192L475 190.5L474.5 190L473.5 189.5H472.5L470.5 191L469 192L470 190.5L471.5 189H470L471 188V186.5L470 187L469 189L468.5 191L467.5 192.5V191V189.5L468 188V186.5L466.5 188L466 189V191L465.5 190L464.5 189.5L463.5 189V190.5L465 192H463.5L464 193L465.5 194H465L464 194.5L463.5 196.5L464 196L464.5 195.5L465 196.5L464.5 197.5L464 199.5V202.5V204L465.5 204.5L465 204L465.5 203.5L466 202.5L467 200V201.5V203.5L466.5 206.5L466 208.5L465 211.5L463.5 214L462 215.5L461 214L461.5 211.5L462.5 204.5L463 195.5V192L462.5 189L462 187.5L461.5 186.5L461 185.5V185V183L462 185L462.5 188L463.5 187L464 188.5L465 187L464 184.5L465.5 185L465 183.5L463.5 181.5L465.5 182.5V181.5L468 183L467.5 181.5L470 182.5L469 181L467.5 180L466.5 179.5H465L461 180L463.5 179L464 178L465.5 178.5L466.5 178L467.5 179H469H470L469 178L468 177.5L466.5 176.5H465H463.5L462 178L460.5 179H459.5L460 178L460.5 176.5V175L460 174L459 175V176.5L458.5 177.5V176.5L457.5 175.5L456 175L455.5 176L456.5 176.5L457 178H455.5H454L452 179L451 181.5L452.5 180.5L454 180L455.5 179.5L457 180L458.5 181L457.5 180.5H456L454 181L452 182.5L450.5 184.5H452V185.5L453 184.5L454.5 183.5L456 183L457.5 183.5L456 185H457.5L456.5 186.5V188L457.5 189.5L458.5 191L459 189L458.5 187L459.5 188L460 186.5L460.5 188.5L461 191V194V196L460.5 199.5L460 202L459.5 204.5L458.5 208L457.5 211L456 212H455.5L454 211H452.5L449.5 211.5L446 212H443L440.5 211.5H438L437 209L436.5 206.5V204.5L437 200.5V203L437.5 204.5L438.5 205.5L439 203.5L439.5 202L439 200.5L438.5 199L440 199.5L441.5 201.5L443.5 202L442.5 201H444L442.5 199.5L441.5 198.5L440.5 197.5L438.5 196.5H440.5L442.5 197.5L444 198.5V197.5H445L443.5 196.5L442.5 195.5L441 194.5L439 194L440 192.5L440.5 192H439L437.5 192.5V191L435.5 189.5L436 191L436.5 194L436 192.5L435 191L433 189.5L433.5 191L434.5 192L435 194.5L433 192.5L431 192L430.5 193.5L431 194.5H432.5L433.5 195.5H432H430.5L431 196.5L432 197.5L432.5 196.5H435L433.5 197.5L432 198.5L431 199.5L430.5 201L431 201.5L430.5 203H431L432 204.5L432.5 202L433 203.5L434 201.5L434.5 199.5H435.5V201.5V203.5V205.5V208L436 212.5H434L432 214L431 212.5L430 210L429.5 207.5L429 204.5V199L429.5 193.5L430 189.5L430.5 187L431 185L432.5 182V183.5H434L435 182H436V183.5H437V185.5L438 185V186.5L438.5 188L439 186.5L439.5 188.5L440.5 186.5L441 184.5V182.5V181V179.5L440 177.5L439 175.5L441.5 176.5V175L445 176L443.5 174.5L446 175H448.5L447 174L445 173.5L444 173L442.5 172.5L440 173L437 172.5L439.5 171.5V171H441.5L442.5 170L445 172V170.5L447.5 172L447 170.5L448.5 171.5H450.5L449.5 170.5L448 169L446 168L443.5 167.5H441.5L439.5 168.5L437 170L438 168.5L439.5 167L438 166.5L439.5 165.5V164V162.5L438 164L437.5 163L436 165L435 168.5L434.5 166.5L433.5 165L432 164H430L430.5 165L432.5 166.5L433.5 168L434.5 170.5L435 172.5L434 171.5L432.5 169L431 167L429.5 165.5H427.5H425L426.5 167.5L428 168.5L430 169L432.5 171.5L431 171L428.5 170H427H425L423 171L421 172.5L419.5 174.5L419 176.5L420.5 176L422 175L424 173.5L427 172.5H429H431L433 173.5H432H429.5L427.5 174L425 175L422 176.5L420.5 177.5L418.5 179.5L420.5 179L419 181L418.5 183L419 184.5L421 183.5L422 182.5H423.5L425 182L426 181L427 180.5L428.5 179L430 179.5L428.5 180.5L427.5 182L427 183.5L428 185L428.5 183.5L429 182.5H430L429 185L428.5 187L428 189.5L427.5 192L427 194.5L426.5 196.5L426 199V201.5V203.5L426.5 210L427 214V216H425L423 215L420.5 214H416L412 215L405 216L401.5 216.5L396.5 216L398.5 218H395.5L397.5 219.5H396.5H394L387.5 219H372V202M551 182.5L553.5 180L554.5 179L556.5 181L559.5 183.5L562.5 185.5L563.5 186L563 190.5L561.5 192.5M551 182.5L553.5 182L554.5 184V185.5V186.5V188.5L553.5 191L552 192.5L549 194L547.5 196L546 197L541 201L535.5 206.5L531.5 210.5L525.5 215.5L523.5 216.5L526.5 217L529 216.5L531.5 214L534.5 212V214.5V216.5L536 215V212.5L537.5 210.5L540 208.5L543.5 206.5L547 205L546.5 207L546 208.5L545 210.5H546.5L548.5 208.5L549.5 206L551 203.5L555.5 197.5L558.5 194L561.5 192.5M576.5 178.5H576L573 179L572 179.5L570.5 180L569 180.5L567.5 182L566.5 183L565.5 184L564.5 185.5L564 186.5L563.5 191L561.5 192.5M576.5 178.5H578H579.5L582 179L582.5 179.5H581L578.5 179L576.5 178.5ZM576.5 178.5L575.5 178L578 175.5L580.5 173.5L583.5 171.5L587 169L588.5 167.5L589.5 166.25M375 0C375 0 375 29.2548 375 48M375 48C378 49 378.269 49.997 379.5 52C380.47 53.578 380.53 54.7082 381 56.5C381.554 58.6116 381.701 59.8375 382 62C382.696 67.0327 382.381 69.9208 382.5 75C382.5 75 382.588 87.4947 382.5 95.5C382.406 104.093 382.361 108.914 382 117.5C381.433 130.996 380.983 138.573 379.5 152L375 183L373.5 185L371.5 185.5M375 48C375 48 375 48 373.5 48L371.5 48.5C371.5 48.5 370.17 49.2897 369.5 50C368.057 51.5299 367.5 55 367.5 55C367.5 55 366.492 59.248 366 62C365.1 67.0306 364.907 69.9057 364.5 75C363.863 82.9828 364.101 87.4925 364 95.5C363.892 104.091 364 117.5 364 117.5L364.5 152L365.25 160.75M330 170.5C330 170.5 327.174 168.468 325.5 167C323.631 165.362 321 162.5 321 162.5C321 162.5 318.713 158.926 317.5 156.5C316.64 154.78 316.009 153.855 315.5 152C314.878 149.732 315.015 148.351 315 146C314.984 143.454 314.991 141.995 315.5 139.5C315.993 137.08 316.235 135.621 317.5 133.5C318.563 131.717 321 129.5 321 129.5L324.5 128H328.5L332 129L335 131L337.5 134.5L339.5 139.5V144.5V148.5V153L339 157L338.5 159.5L337.5 163.5C337.5 163.5 336.891 165.633 336.5 167M330 170.5L335 171.654M330 170.5C330 170.5 329.869 172.669 329.5 174C328.847 176.358 327.791 177.421 326.5 179.5C325.757 180.696 324.5 182.5 324.5 182.5C324.5 182.5 322.555 185.125 321 186.5C319.741 187.612 318.867 188.024 317.5 189C316.133 189.976 314 191.5 314 191.5C314 191.5 311.334 193.262 309.5 193C308.203 192.815 306.5 191.5 306.5 191.5C306.5 191.5 305.829 189.383 305.5 188C304.906 185.501 304.5 181.5 304.5 181.5C304.5 181.5 304.159 176.909 304.5 174C304.875 170.802 305.811 169.146 306.5 166C306.926 164.055 307.5 161 307.5 161C307.5 161 307.983 158.525 308.5 157C308.838 156.004 309.5 154.5 309.5 154.5C309.5 154.5 310.436 152.682 311 151.5C311.828 149.764 313 147 313 147C313 147 313.852 144.603 314 143C314.09 142.028 314.283 141.434 314 140.5C313.637 139.303 313.021 138.722 312 138C311.141 137.393 310.519 137.258 309.5 137C307.607 136.521 306.435 136.739 304.5 137C302.904 137.216 301.925 137.25 300.5 138C299.877 138.328 299.512 138.517 299 139C298.172 139.781 298.047 140.501 297.5 141.5L294 150.5C294 150.5 291.461 157.895 289.5 162.5C287.55 167.08 286.232 169.55 284 174C281.924 178.138 278.5 184.5 278.5 184.5C278.5 184.5 275.258 191.458 272.5 195.5C270.386 198.599 268.942 200.153 266.5 203C264.79 204.994 264.225 206.603 262 208C260.741 208.791 259.985 209.431 258.5 209.5C256.833 209.577 255.888 208.926 254.5 208C252.157 206.437 250.5 202 250.5 202C250.5 202 247.179 193.645 246.5 188C245.987 183.735 246.5 177 246.5 177L247.5 161L248.5 148.5M336.5 167C334.743 166.609 333.757 166.391 332 166M336.5 167C337.672 167 339.5 167 339.5 167C339.5 167 341.963 167.279 343.5 167C344.715 166.779 345.399 166.558 346.5 166C348.351 165.061 350.5 162.5 350.5 162.5L353.5 158.5C353.5 158.5 354.364 157.24 355 156.5C355.72 155.662 356.219 155.281 357 154.5M335 171.654C335 171.654 335.908 171.896 336.5 172C338.423 172.337 341.5 172 341.5 172C341.5 172 344.635 171.699 346.5 171C349.137 170.011 352.5 167 352.5 167L357 162.5C357 162.5 359.854 158.818 359 156.5C358.849 156.09 358.5 155.5 358.5 155.5C358.5 155.5 357.586 154.891 357 154.5M335 171.654L332.5 177.5L329.5 183L325.5 189L321 193L316 196.5L309.5 199C309.5 199 304.878 199.546 302 199C300.603 198.735 299.793 198.59 298.5 198C295.859 196.795 294.791 195.284 293 193C291.863 191.55 291.307 190.656 290.5 189C289.769 187.5 289 185 289 185C288.921 183.635 288.78 182.849 289 181.5C289.268 179.853 290.5 177.5 290.5 177.5L293 173C293 173 290.757 175.348 289.5 177C287.958 179.026 286 182.5 286 182.5C286 182.5 283.756 188.078 282 191.5C279.921 195.552 276 201.5 276 201.5C276 201.5 272.566 207.434 269.5 210.5C266.434 213.566 260.5 217 260.5 217C260.5 217 259.312 217.679 258.5 218C255.05 219.365 249 218 249 218C249 218 245.814 216.715 244 215.5C242.047 214.191 241.068 213.252 239.5 211.5C237.333 209.078 236.513 207.376 235 204.5C233.615 201.868 232.893 200.337 232 197.5C231.16 194.833 230.974 193.255 230.5 190.5C229.966 187.397 229.5 182.5 229.5 182.5C229.5 180.547 229.5 179.453 229.5 177.5C229.5 175.547 230.071 170.405 230.5 168.5M110 177.5C110 178.476 110 180 110 180C110 180 110.192 184.885 110.5 188C110.791 190.941 111.5 195.5 111.5 195.5C111.5 195.5 113.599 199.422 115.5 201.5C117.662 203.863 119.023 205.32 122 206.5C125.993 208.083 128.818 207.48 133 206.5C136.32 205.722 138.117 204.821 141 203C144.621 200.713 146.145 198.692 149 195.5C152.072 192.065 153.307 189.739 156 186C158.375 182.703 162 177.5 162 177.5C162 177.5 166.876 169.577 170 164.5M110 177.5C108.438 181.015 107.664 183.032 106 186.5C103.997 190.673 102.674 192.913 100.5 197C97.9965 201.705 96.8233 204.48 94 209C91.9916 212.216 90.7729 213.966 88.5 217C85.922 220.442 85.2679 223.428 81.5 225.5C80.0382 226.304 79.1227 226.612 77.5 227C74.4612 227.726 72.5079 227.844 69.5 227C67.3981 226.41 66.1913 225.88 64.5 224.5C62.7751 223.092 61.9104 222.032 61 220C60.0285 217.832 60.2599 216.361 60 214C59.4872 209.342 59.7633 206.68 60 202C60.2081 197.886 60.42 195.578 61 191.5C61.5877 187.367 62.1862 185.094 63 181C63.9333 176.305 64.6692 173.714 65.5 169C66.1853 165.111 66.3808 162.9 67 159C67.6191 155.1 67.8258 153.499 68.5 150C68.6884 149.022 69 147.5 69 147.5C69 147.5 68.8931 145.621 68.5 144.5C68.5 144.5 68.1912 143.034 67.5 142.5C66.8627 142.008 66.3027 141.938 65.5 142C64.3648 142.087 63 143.5 63 143.5C63 143.5 61.5 144.5 60 147.5C58.5 150.5 56 156 56 156C56 156 52.516 162.641 50.5 167C50.5 167 47.7867 173.412 46 177.5C44.4596 181.024 43.5621 182.985 42 186.5C40.4379 190.015 38 195.5 38 195.5C38 195.5 37.2517 199.42 35.5 201C34.6546 201.763 34.0465 202.051 33 202.5C29.9489 203.808 27.3637 204.179 24.5 202.5C22.7093 201.45 22.1074 200.256 21 198.5C19.974 196.873 19.5 196 19 194C18.5 192 19 184.5 19 179C19 173.5 20 164 20 164C20 164 21.3159 149.349 22.5 140C23.6659 130.795 24.0871 125.579 26 116.5C28.0902 106.579 30.7724 97.483 33 91.5C35.2276 85.517 36.3773 82.0684 39.5 76.5C41.4339 73.0515 42.549 71.1024 45 68C46.7994 65.7223 50 62.5 50 62.5C50 62.5 53.7992 58.9397 56.5 57C58.9209 55.2613 63 53 63 53C63 53 65.3991 51.9694 67 51.5C68.9108 50.9397 72 50.5 72 50.5C72 50.5 74.5689 50.7621 76 51.5C77.3555 52.1989 78.1024 52.7671 79 54C79.9819 55.3488 80.5 58 80.5 58C80.5 58 81.1935 60.7261 81.5 62.5C82.597 68.8496 81.985 74.6215 81.5 79C81.015 83.3785 80.359 85.8096 79 90C77.6237 94.2436 74.5 100.5 74.5 100.5C74.5 100.5 71.3545 107.015 69 111C66.4933 115.243 64.889 117.507 62 121.5C59.3898 125.107 57.746 126.995 55 130.5C52.0849 134.221 50.7104 136.531 47.5 140C44.5914 143.143 42.6242 144.571 39.5 147.5M110 177.5C110 177.5 109.989 176.586 110 176C110.042 173.844 110.144 172.849 110.5 170.5C110.856 168.151 111.5 164.5 111.5 164.5M39.5 147.5C37.3521 149.257 36.2178 150.332 34 152C30.2778 154.8 28.1102 156.309 24 158.5C20.6059 160.309 18.6041 161.157 15 162.5C11.3959 163.843 4.99998 165.5 4.99998 165.5C4.99998 165.5 3.31775 166.033 2.49998 165.5C1.91028 165.115 1.68522 164.679 1.49998 164C1.34585 163.435 1.26923 163.038 1.49998 162.5C1.71754 161.992 2.49998 161.5 2.49998 161.5C3.33914 160.866 4.99998 160.5 4.99998 160.5L10.5 158.5C10.5 158.5 16.5121 156.862 20 155C22.4843 153.674 23.674 152.588 26 151C29.3559 148.709 31.3573 147.575 34.5 145C36.7452 143.16 40 140 40 140C40 140 43.1604 137.059 45 135C48.07 131.563 52 125.5 52 125.5C52 125.5 55.4128 120.358 57.5 117C59.3031 114.099 60.2171 112.413 62 109.5C63.923 106.358 65.2664 104.751 67 101.5C68.8099 98.1062 69.584 96.0761 71 92.5C72.2959 89.2271 74 84 74 84L75.5 77.5C75.5 77.5 75.9094 72.934 76 70C76.0783 67.4628 76.359 66.0129 76 63.5C75.8592 62.5144 75.9084 61.908 75.5 61C75.0995 60.1096 74.7577 59.6157 74 59C73.3223 58.4493 72.8524 58.1894 72 58C71.2375 57.8306 70.7439 57.762 70 58C69.3295 58.2146 69.0247 58.5306 68.5 59C67.7724 59.651 67 61 67 61L65.5 63.5C65.5 63.5 63.6119 66.5128 62.5 68.5C60.7944 71.5482 59.9702 73.3315 58.5 76.5C56.1038 81.6639 54.8918 84.6307 53 90C51.7071 93.6695 51.1326 95.7779 50 99.5C48.9927 102.81 48.384 104.655 47.5 108C46.6287 111.297 46.2569 113.175 45.5 116.5C44.4798 120.981 43 128 43 128L41.5 134.5L40.5 139M39.5 147.5C39.0703 150.032 38.8513 151.456 38.5 154C38.0428 157.311 37.8436 159.175 37.5 162.5C37.0165 167.178 36.8762 169.813 36.5 174.5C36.0927 179.575 34.5 188.5 35.5 187.5C36.5 186.5 36.453 186.622 37 186C39.5393 183.111 41 177 41 177L44 169.5C44 169.5 46.6066 163.04 48.5 159C50.8351 154.018 52.1137 151.184 55 146.5C56.9888 143.272 57.835 141.197 60.5 138.5C62.2577 136.721 65.5 134.5 65.5 134.5L69 133.5H73.5L77 134.5L80 136.5L82.5 140L84 143.5L85 147.5L85.5 155V160C85.5 160 85.5266 162.438 85.5 164C85.4399 167.52 85.2919 169.492 85 173C84.7068 176.524 84.4687 178.495 84 182C83.5021 185.723 82.5 191.5 82.5 191.5L80.5 202.5C80.5 202.5 79.5583 207.658 79.5 211C79.4898 211.586 79.4572 211.916 79.5 212.5C79.5726 213.493 80 215 80 215C80 215 80.253 215.377 80.5 215.5C80.8493 215.675 81.5 215.5 81.5 215.5L82.5 215C82.5 215 84.3705 212.593 85.5 211C86.7217 209.277 88.5 206.5 88.5 206.5L92.5 199.5L97 192L101 184.5C101 184.5 103.729 179.312 105.5 176C106.859 173.457 107.677 172.062 109 169.5C110.002 167.56 111.5 164.5 111.5 164.5M133.5 158L137.5 157L143.5 155L148 151L149 147.5L148 145L146 143.5H143.5L141 145L139.5 146.5L137.5 149.5L135.5 153L133.5 158ZM133.5 158L131.786 162.5M131.786 162.5C131.786 162.5 134.067 162.728 135.5 162.5C136.295 162.374 136.722 162.209 137.5 162C140.9 161.086 142.972 160.796 146 159C147.679 158.004 148.54 157.297 150 156C151.964 154.255 153.411 153.391 154.5 151C155.325 149.188 155.371 147.987 155.5 146C155.563 145.026 155.5 144.476 155.5 143.5C155.5 142.719 155.597 142.275 155.5 141.5C155.347 140.275 155.021 139.62 154.5 138.5C154.02 137.468 153.718 136.884 153 136C152.478 135.357 152.145 135.02 151.5 134.5C150.952 134.058 150.599 133.869 150 133.5C148.513 132.584 147.677 131.989 146 131.5C144.674 131.113 143.879 131.058 142.5 131C140.539 130.917 139.417 131.082 137.5 131.5C135.267 131.987 134.063 132.517 132 133.5C129.944 134.48 128.765 135.061 127 136.5C124.306 138.697 123.454 140.624 121.5 143.5C119.546 146.376 116.846 151.544 114.5 157C113.669 158.932 113.231 160.028 112.5 162L111.5 164.5M131.786 162.5L130.5 165.5L129 171.5C129 171.5 128.188 176.051 128 179C127.826 181.728 128 186 128 186C128 186 128.046 189.825 129 192C130.004 194.29 133 197 133 197C133 197 134.389 198.253 135.5 198.5C136.262 198.669 136.75 198.719 137.5 198.5C138.437 198.226 138.751 197.626 139.5 197C140.771 195.938 141.352 195.195 142.5 194C144.319 192.105 145.288 190.992 147 189C148.809 186.895 151.5 183.5 151.5 183.5L159.5 172L167 160.5C167 160.5 169.34 156.538 170.84 154M170 164.5C169.062 169.524 168.731 172.395 168.5 177.5C168.35 180.816 168.213 182.693 168.5 186C168.792 189.358 169.117 191.247 170 194.5C170.761 197.301 172.5 201.5 172.5 201.5C172.5 201.5 174.369 205.623 176 208C178.267 211.304 183 215.5 183 215.5L187 218C187 218 192 219 196 218C200 217 198.503 217.593 200 217C203.232 215.719 207 211.5 207 211.5C207 211.5 212.463 205 215.5 200.5C219.023 195.28 220.786 192.182 223.5 186.5C225.235 182.868 226.056 180.757 227.5 177C228.763 173.714 229.328 171.819 230.5 168.5M170 164.5C170.328 160.399 170.512 158.101 170.84 154M170.84 154C170.902 153.219 170.937 152.781 171 152C171.579 144.775 171.77 140.712 172.5 133.5C173.014 128.415 173.209 125.549 174 120.5C175.458 111.188 176.285 105.86 179.5 97C180.873 93.216 181.828 91.162 183.5 87.5C185.494 83.1308 186.703 80.7177 189 76.5C191.723 71.5007 192.831 68.3529 196.5 64C198.458 61.6774 199.704 60.4883 202 58.5C203.683 57.0427 204.615 56.1852 206.5 55C208.348 53.8378 209.468 53.2988 211.5 52.5C213.397 51.7541 214.475 51.2375 216.5 51C217.857 50.8407 218.651 50.7804 220 51C221.647 51.2681 222.527 51.7162 224 52.5C225.483 53.2891 226.304 53.8205 227.5 55C228.39 55.878 228.845 56.4351 229.5 57.5C230.279 58.7666 231 61 231 61L231.5 63.5V66.5V69.5C231.5 69.5 231.5 68.5 231 72C230.5 75.5 229.5 79.5 229.5 79.5L226.5 89.5L222 100.5C222 100.5 218.281 108.253 215.5 113C212.297 118.467 206.5 126.5 206.5 126.5C206.5 126.5 203.012 131.806 200.5 135C197.763 138.48 193 143.5 193 143.5C193 143.5 189.343 146.852 187 149M187 149C187.759 144.899 188.944 138.5 188.944 138.5M187 149C186.077 156.974 185.747 161.477 185.5 169.5C185.32 175.355 185.5 184.5 185.5 184.5C185.5 184.5 185.401 194.16 188 199.5C189.232 202.032 189.893 203.631 192 205.5C193.378 206.723 194.19 207.657 196 208C198.187 208.415 199.596 207.653 201.5 206.5C203.153 205.499 203.747 204.472 205 203C206.825 200.855 207.418 199.33 209 197C210.734 194.446 211.853 193.111 213.5 190.5C215.18 187.837 215.978 186.256 217.5 183.5C219.948 179.066 221.261 176.544 223.5 172C225.971 166.984 227.289 164.136 229.5 159C230.504 156.668 232 153 232 153M188.944 138.5L189.5 135.5L192 124L196.5 109L200.5 95L203.5 86L206.5 78.5L209 73L211.5 68.5L214.5 64L216.5 62L220 61L223 62L224 64V65.5V68.5V79.5L219 95L212.5 107L204 121L195 132.5L188.944 138.5ZM232 153C232 153 231.086 162.447 230.5 168.5M232 153L234 135L236.5 120L240.5 104.5L244.5 91L250.5 77.5L256.5 68.5L261 63.5L265.5 59.5L269.5 57.5L273.5 56L277.5 55H281.5L285.5 56L288.5 57.5L291 59.5L292.5 62L293.5 65.5V69.5V74.5L292.5 81L291 86L289 91L285.5 99L281.5 107L275.5 116.5L272.5 121L267.5 128L262 135L256.5 140.5L252 145.5L248.5 148.5M248.5 148.5L249.833 140.5M249.833 140.5L250.5 136.5C250.5 136.5 252.405 130.427 253.5 126.5C255.014 121.072 255.52 117.938 257 112.5C258.282 107.79 259.124 105.184 260.5 100.5C262.05 95.2244 262.806 92.2313 264.5 87C265.965 82.4762 266.609 79.8626 268.5 75.5C269.889 72.2952 270.177 70.1089 272.5 67.5C273.697 66.1554 274.537 65.5488 276 64.5L277.5 63.5C277.5 63.5 278.701 63.0969 279.5 63H281.5C281.5 63 282.755 63.5446 283.5 64C284.333 64.5091 285.5 65.5 285.5 65.5L286 67.5V69.5C286 69.5 286.066 71.6348 286 73C285.915 74.7661 285.858 75.7684 285.5 77.5C285.213 78.8922 284.947 79.6504 284.5 81C283.839 82.9966 283.281 84.0474 282.5 86C281.719 87.9526 281.322 89.0642 280.5 91C278.896 94.7788 277.844 96.8324 276 100.5C276 100.5 272.18 107.893 269.5 112.5C266.721 117.277 265.102 119.927 262 124.5C262 124.5 258.025 129.976 255.5 133.5C254.522 134.865 254.05 135.689 253 137C251.848 138.439 249.833 140.5 249.833 140.5ZM332 166C332.586 164.633 333.5 162.5 333.5 162.5L335 156.5C335 156.5 335 151.624 335 148.5C335 146.352 335.32 145.124 335 143C334.696 140.984 333.5 138 333.5 138C333.5 138 331.326 133.164 328.5 132.5C327.359 132.232 326.63 132.192 325.5 132.5C324.142 132.87 323.492 133.501 322.5 134.5C321.812 135.193 321.463 135.64 321 136.5C320.237 137.918 320.216 138.904 320 140.5C319.739 142.435 320 145.5 320 145.5C320 145.5 319.899 147.333 320 148.5C320.155 150.294 321 153 321 153C321 153 321.755 155.507 322.5 157C323.686 159.377 324.557 160.689 326.5 162.5C328.362 164.236 329.852 164.633 332 166ZM357 154.5C357.781 154.305 359 154 359 154L360.5 154.5L361.5 155.5L362.5 157L364 159.5L365.25 160.75M371.5 185.5L368.5 185L367.5 181L367 178L366 169.5L365.25 160.75M371.5 185.5L372 187.5M368.5 188C368.5 188 366.782 189.362 366 190.5C365.158 191.725 364.5 194 364.5 194C364.076 195.906 363.627 197.254 364.5 199C365.117 200.235 365.738 200.939 367 201.5C368.262 202.061 370.139 202.623 372 202M368.5 188C368.5 188 370.654 187.194 372 187.5M368.5 188L372 187.5M372 187.5C373.755 187.899 375.5 190.5 375.5 190.5C375.5 190.5 377.069 193.149 377 195C376.938 196.667 376.443 197.624 375.5 199C374.482 200.485 373.707 201.429 372 202M589.5 166.25L590.5 165L591 163L592 161.5L593 162L595 164.5L596.5 166L599 169L603.5 172.5L606.5 175.5L608.5 178.5L611 182L614 185.5L617 188L620 190.5C620 190.5 620.914 190.805 621.5 191L623 190.5L618.5 193L617 195L620 192.5L624 190L626.5 188L629.5 185L632 182.5L633 181L634 180L635 182L636 184L640 189L644.5 192.5L649 195.5L652.5 197L653.5 197.5L655 199.5L657 202L660 204.5L663 206L666.5 208L669.5 211L673 215.5L674.5 218L675.5 219.5H680H684C684 219.5 675.5 227 675.5 235.5C675.5 244 684 255.5 684 255.5C684 255.5 675.5 265.5 675.5 274.5C675.5 283.5 684 294.5 684 294.5C684 294.5 675.5 305.5 675.5 315C675.5 324.5 684 338.5 684 338.5C684 338.5 675.5 347.5 675.5 356C675.5 364.5 684 382 684 382V550H652M589.5 166.25H591L592 168.5L593 170L594.5 171.5V173.5L595 175.5L596.5 177L598 179V182L600.5 185L602.5 188L603.5 194L605 200.5L606.5 202L608 202.5L608.5 203.5L608 204.5L606.5 206L605.5 206.5L602 204.5L597.5 201L596.5 198.5L594.5 195.5L592.75 194M594 218.5L596.5 216V214.5L595 212.5L594 209.5L593 208.5L590.5 206L589.5 204V201L589 198.5L587 197L586 195L585 194H583.5L582 195.5L579.5 197.5L578 200L576.5 202L575.5 205L574 208L572.5 211L571 212V210.5L572 208.5L573.5 205L574.5 202L576 199.5L578.5 196L580.5 193V191L576.5 194L573 195.5L568 200L564.5 204V206L563 207L562.5 210.5L560.5 213.5L559.5 216L557 218.5L557.5 216L559.5 212L560 209L560.5 207H559.5L557 209.5L554.5 212L552 214.5L548.5 216.5H543.5L546.5 214.5L549 212.5L552 210.5L554.5 207L557 204L559.5 203.5L560.5 202.5L563.5 199.5L567.5 195.5L570.5 193L573 191.5L576.5 190L578.5 188L581 186L582.5 185.5L584 186.5L585.5 188L587 190.5L589 191.5L591 192.5L592.75 194M594 218.5H593L591 219M594 218.5L593 220H595L597.5 219L600 217L602.5 214.5L606 211.5L609.5 209.5L611.5 207.5L615.5 203.5L617 201L618.5 198.5M591 219L589 218.5L585.5 216V213L584 209V203.5L582.5 200.5L582 203.5V206.5L582.5 209.5L583.5 212L584 215.5L585.5 218L588.5 219H591ZM618.5 198.5V196L620 195L624 192.5L626.5 191L630.5 188L631 187L632.5 189.5V192.5L636 195.5L639 200L643.5 203.5L647.5 204L652 207.5L653.5 210H655L656 211L657 212.5L660 214.5L661.5 216L665 218L666.5 219.5H660M618.5 198.5L621.5 197.5M660 219.5L657.5 216.5L655 214.5L652.5 212.5L650 211L649 209.5L646.5 208L644.5 207.5L643.5 206L642 205H640H637.5L633 202L631 199.5L629.5 198.5L628 200L626.5 202L624 204L621 206L617.5 208L615.5 210L612.5 211.5L609.5 213.5L607.5 215L605.5 218.5L608 217L611 215L614 213.5L611.5 217L611 219.5L611.5 220L614 217L616 214L619 210L621.5 208L624 207L626.5 204.5L628 206L628.5 209M660 219.5L659.5 220.5L657 218L655 217L653.5 216L653.5 218L655 220L652.5 218.5L651.5 216L648.5 213.5L646 212L642.5 210.5L641 210L644.5 214.5L648.5 218L650 219.5V221H647.5L644.5 220L641 219L637.5 218L635 215.5L633 212.5L631 210L628.5 209M628.5 209L626 210.5M621.5 197.5L624 196L626.5 194L629.5 191L628.5 194L627 196.5L625 199.5L624 200V198.5L621.5 199.5L620 201L619 203.5L620 199.5L621.5 197.5ZM592.75 194L592 189.5V185.5L591 182L590.5 179.5V177V174.5L591 173.5L591.5 176L592.75 180L594.5 183.5L596.5 186.5L598 190.5V193L596.5 190.5L594.5 187L593.5 189V191.5L592.75 194ZM626 210.5L625 212.5L623 216.5L621 219V217L622.5 213L625 209L626 207.5V210.5ZM652 550V548.5H643.5H642.5M652 550L632.5 549.863M652 550V550.5H615M642.5 548.5V547H641.5V545.5H639.5V544.5H638V540.5M642.5 548.5V549.5M638 540.5H639.5V537H640.5V533.5H641.5V530.5H636.5V502H632.5V493.5H628V487.5H616M638 540.5V537H635.5M616 487.5V486M616 487.5L616.012 489M597.5 468.5V466H599V465H606.5V466H607.5V467M597.5 468.5H594.5V469H593.5V470M597.5 468.5H603M596 514.5V515.5H595M596 514.5V513.5M596 514.5H591.5M595 515.5H591.5M595 515.5V516.5M595 517.5H597.5V518.334M595 517.5V516.5M595 517.5H591.5M589 520V533.5M589 520H587.5M589 520H589.5M589 533.5H588M589 533.5H596V534.5H596.5M588 533.5H587V534M588 533.5V532M588 533.5H571.5M588 533.5V535M583 538V536.5H584.5V535.5H585.5V534.5H587V534M583 538H587.5M583 538V539M616.5 549.75L616.45 543.5M616.5 549.75L622 549.789M616.5 549.75L602 549.648M616.164 507.951H623V509H624.5V536.5M616.164 507.951L616.152 506.475M616.164 507.951L616.173 509M624.5 536.5L623.5 536L623 535L622 534.5L621.5 534L620.5 533.5L620 533H619L618.5 532.5H617.5L617 532H616.5L614 531H591L589.5 532V534M624.5 536.5H625.5V537H626.5V537.5M626.5 538H627.5M626.5 538V537.5M626.5 538V539L627.5 539.5M627.5 538V536.5V536H627V533H626V531H635.5M627.5 538L628 538.5H629L629.5 539.5H630.5L631 540.5M635.5 536H639.5V531H635.5M635.5 536V531M635.5 536H634V535H633.5H632.5V536H631V537L632 537.5V539H631V540.5M635.5 536V537M631 540.5L631.5 541L632 542L633 542.5L633.5 543.5V545M631 540.5H634.5M633.5 545H634.5M633.5 545V546M634.5 545H637V539H636.5H635.5M634.5 545V546.5H639.5V549.5H633.5V546M634.5 545V540.5M634.5 540.5V539H635.5M635.5 539V537M617.5 537.5H618.5M617.5 537.5V538V541H619V542.5H622V544H623M617.5 537.5H615.5V538.5H616.41M626.5 537.5H624M627.5 539.5H628H628.5L629 540.5L629.5 541H630.5V541.5V542L631 542.5L631.5 543H632.5V544L632 545V546M627.5 539.5V541L628.5 541.5L629.5 542V542.5V543L630 544L631 544.5L632 546M627.5 539.5H626M632 546H633H633.5M632 546L632.5 547V547.5L632 548V549L632.5 549.863M632 546H631M632.5 549.863L631 549.852M631 549.852V548.5L630.5 548M631 549.852L630 549.845M630.5 548V547L631 546M630.5 548H629.5M631 546L630 545.5L629 545V544L628 543.5V542.5M626 539.5L625.5 539V538L624 537.5M626 539.5V540.5L626.5 541.5L628 542V542.5M626 539.5H624.5L624 539H623.5L623 538.5L622.5 538V537.5M624 537.5H622.5M628 542.5H626.5M622.5 537.5H621M621 537.5V538.5L622 539M621 537.5H620M622 539L622.5 539.5L623 540H623.5L624 540.5L624.5 541V541.5L625 542H625.5H626L626.5 542.5M622 539V541.5M626.5 542.5L626.667 543M629.5 547L629 546.5L628.5 546V545H627.5L627 544L626.667 543M629.5 547V548M629.5 547L626.875 546.951M629.5 548L630 549M630 549V549.845M630 549H626.875M630 549.845L626.875 549.823M620 537.5V539L619 538.5V537.5M620 537.5H619M619 537.5H618.5M618.5 537.5V539.5V540.5H620V541V541.5H622M622 541.5H623M626.667 543H626M626 543H625H623.5V541.5H623M626 543V545.5V549.817M626 549.817L624.25 549.805M626 549.817L626.875 549.823M616.45 543.5H620M616.45 543.5L616.414 539M620 543.5H621M620 543.5V545V545.5H621V547H622V549.789M622 549.789L623 549.796M623 549.796V544M623 549.796L624.25 549.805M623 541.5V544M623 544H624.25M625.5 544H624.25M624.25 544V546.902M624.25 549.805V546.902M624.25 546.902L626.875 546.951M626.875 546.951V544M626.875 546.951V549M626.875 549.823V549M616.41 538.5H617M616.41 538.5L616.414 539M616.41 538.5L616.381 535M616.414 539H617V539.5M597.5 534.5V535.5H599V536.5M597.5 534.5H596.5M597.5 534.5H608M599 536.5H600.5V536.875M599 536.5H593M600.5 538V537.25M600.5 538V539.5M600.5 538H588M599.5 543H600.5V539.5M599.5 543V547H601.5V547.581M599.5 543V539.5H600.5M602 549.648L597.5 549.616M602 549.648V548.954M602 549.648V550.5M597.5 549.616L596.251 549.607M597.5 549.616V548.938M596.251 549.607L593.244 549.586M596.251 549.607V548.701M596.251 547.815V546.902H595.5V544.5H598V545V546.902H597.5V547.581M596.251 547.815H594M596.251 547.815V548.701M593.244 549.586L590.853 549.569M593.244 549.586V548.701M594 547.815H593.244V548.701M594 547.815V544.5H590V547.815M590 547.815H590.853V548.692M590 547.815H589.426M590.853 549.569V548.692M590.853 549.569L589.426 549.559M593.244 548.701H596.251M588 549.549L587 549.542M588 549.549V548.682M588 549.549L589.426 549.559M589 547.815H588V548.682M589 547.815V544.5V544V543.5H586.5H586V547.815H587V548.679M589 547.815H589.426M587 549.542L585 549.528M587 549.542V548.679M585 549.528L581 549.5V548.75M585 549.528V548.701M585 542.5V543V547.815M581 548.75V548H582V547.815M581 548.75L585 548.701M585 548.701V547.815M585 548.701L587 548.679M585 547.815H582M582 547.815V547H584V545.5M588 548.682L590.853 548.692M589.426 549.559V547.815M597.5 548.259H602M597.5 548.259V548.938M597.5 548.259V547.581M602 548.259V548H601.5V547.581M602 548.259V548.954M602 548.954L597.5 548.938M597.5 547.581H601.5M598.5 547.5V541H598M589.426 543.5H594.5M594.5 543.5H598V542.5H584V541H584.5M594.5 543.5V547.581M587.5 540.5V538M587.5 538H588M600.5 537.25H585V536.5H587.5M600.5 537.25V536.875M593 536.5H588M593 536.5V535.75M587 534H587.5M587.5 536.5V534M587.5 536.5H588M587.5 534H589.5M588 536.5V535.5M588 536.5H571.5M593 535.75V535H591.5V534H589.5M593 535.75H591.285M596.5 536V534.5M584.5 541V540H583M584.5 541H593.688M583 540V539.5M583 540V541M583 539H583.5M583 539V539.5M591.285 540.5V540.179M593.688 541V540.179M593.688 541H595.5M593.688 540.179V539.357H591.285V540.179M593.688 540.179H591.285M598 541H595.5M598 541V540.179M595.5 541V540.179M595.5 540.179V539.357H598V540.179M595.5 540.179H598M587.5 509V513.467M587.5 509C585.001 506.43 582.586 503.931 580.257 501.5M587.5 509H588M539 439V438.5H538M539 439H527M539 439V439.75M538 438.5H536M538 438.5V437.75M536 438.5V437.75M536 438.5H530H529.5H529M538 437.75V437H536V437.75M538 437.75H536M529 438.5V437.5H527V438.5M529 438.5H527M527 438.5V439M527 439H526.5V439.75M526.5 440.5V441H526V441.5M526.5 440.5V439.75M526.5 440.5H539M465.5 505H466C466.513 504.851 467.012 504.704 467.5 504.557M465.5 505V501.5H464.5V500.5H457V501.5H456V505V505.5M465.5 505V505.5M465.5 505.5H463.5M465.5 505.5V506.25M461 506.5V505.5H461.5M461 506.5V513M461 506.5H460.5M456 505.5H456.5V506.5H457H460.5M456 505.5H455.5M376 439.5H377V440V441C377.902 442.377 378.785 443.708 379.654 445M376 439.5V438.5H375.5V438M376 439.5H365M376 439.5V440.5M375.5 437V437.5V438M375.5 438H374.5M374.5 438V437M374.5 438V438.5H374V439H367.5M366.5 439V438M366.5 439H365M366.5 439H367.5M366.5 438H365V439M366.5 438V437M366.5 438H367V438.5H367.5V439M365 439V439.5M365 442V443C364.037 447.535 362.721 451.82 361.033 456M365 442V441.25M365 442H367M365 439.5V440.5M365 440.5H376M365 440.5V441.25M376 440.5V441.25M365 441.25H376M376 441.25V442H374.5M367 442V443.5V444.5H366.5V453H367V453.5M367 442H369M369 442V443.5M369 442H373M369 443.5H369.5C372.376 447.365 375.06 450.918 377.592 454.199M369 443.5V453.5M452.5 512.5V513M452.5 513V513.667M452.5 513C452.333 513.001 452.166 513.001 452 513.002M452.5 513C452.5 513 453.724 513 454.811 513M465.5 513V512.5V507M465.5 513H463.5M465.5 513L467.5 513.008M455.5 507V505.5M455.5 507C455.5 507 455.5 510.657 455.5 513M455.5 507C454.3 507.022 453.137 507.01 452 506.963M455.5 505.5C455.269 505.486 455.039 505.47 454.811 505.453M461.5 505.5V507H463.5M461.5 505.5H463.5M465.5 507H463.5M465.5 507V506.25M463.5 507V513M463.5 507V505.5M463.5 513C462.569 513 461.76 513 461 513M455.5 513C455.5 514.041 455.5 515.667 455.5 515.667M455.5 513C456.23 513 456.885 513 457.5 513M455.5 513C455.287 513 455.052 513 454.811 513M596 513.5V513H595V512H592.5V511.5L592 511V510.5L591.5 510H590.5V509.5L590 509H589.5M596 513.5C594.477 513.494 592.977 513.488 591.5 513.483M319 513.5V514H318V514.75M319 513.5C320.656 511.616 322.264 509.784 323.827 508M319 513.5L323.827 513.482M319 515.5H318V514.75M319 515.5V516M319 515.5H332.5M319 517V518.5M319 517V516M319 517H320.5M319 518.5H318V519.5H319M319 518.5H320.5M319 519.5V520H327M319 519.5H327M529.252 519V520H528.5M529.252 519V517.5H530V517H530.5V516M529.252 519H527M529.252 519H531.5M530.5 516V515.334H527M530.5 516H532.5M533 516V517H533.5V517.5H534.5V519M533 516H532.5M533 516H534V515.5V515H534.5V514.5M534.5 519H535M534.5 519H532M536.5 539H535.5M536.5 539V537.5M536.5 539H541.5M535.5 539V543M535.5 539H534.5M535.5 543H537.5V543.5M535.5 543H529.5M537.5 549.559V550.5M537.5 549.559V545V544M537.5 549.559L536 549.568M537.5 550.5H522.5M537.5 550.5H543M602 550.5H588M602 550.5H608M522.5 550.5V549.607L527.5 549.616M522.5 550.5H522M527.5 549.616L531.5 549.594M527.5 549.616V546.5M527.5 544H528.5M527.5 544V542H527H526.5V541.5H526M527.5 544V546.5M527.5 544H526V543.5M528.5 544H529M528.5 544V543.5M529.5 543H528.5V543.5M529.5 543V541H528V539M528 539H524M528 539H528.5M523.5 539V520M523.5 539H522.5V541H522V543.5M523.5 539V543.5M523.5 539H524M523.5 520H524.5M523.5 520H522.5M522 543.5H521.5V544H520.5V544.5M522 543.5V550.5M522 543.5H523.5M520.5 544.5H512V545M520.5 544.5V547M512 545H511V545.5H510M512 545V547M501 550.5H512M501 550.5V549.5M501 550.5H395M512 550.5H520.5M512 550.5V549.5M522 550.5H520.5M520.5 550.5V548M520.5 548H512M520.5 548V547M512 548V549.5M512 548V547M537.5 544H536M537.5 544V543.5M536 544V549.568M536 544H533M536 549.568L533 549.585M533 544V549.585M533 544H531.5M533 549.585L531.5 549.594M531.5 544V549.594M531.5 544H530.5M530.5 544V549.559M530.5 544H529M529 544V549.559M523.5 543.5V544.5H524.5V543.5M523.5 543.5H524.5M528.5 543.5H526M524 539V539.5H524.5V540H525V540.5H525.5V541H526V541.5M526 541.5V543.5M526 543.5H524.5M527.5 546.5H526.5M501 549.5V545.5H501.5H502.5V546.5H504V545.5H504.5V546.5H505.5V545.5H506H507V546H508V545H508.5V545.5H509.5M501 549.5H512M512 547H520.5M509.5 545.5V546.5H510V545.5M509.5 545.5H510M530 539V538V537.5H530.5V537H531V536.5H531.5V536H532V535.5H532.5M530 539H528.5M530 539H534.5M532.5 535.5V535H533V534.5H533.5M532.5 535.5V536V536.5H533V537H533.5V537.5H534V538H534.5V539M533.5 534.5V534M533.5 534.5V535H534V535.5H534.5V536H535V536.5H535.5V537H536V537.5H536.5M533.5 534H534V533H534.5V532.5H535V532H535.5V531.5H536M533.5 534H533V533.5H532.5V533M536.5 531.5H536M536.5 531.5V528M536.5 531.5V537.5M536 531.5V529M536.5 528H536V529M536.5 528V524M532.5 533H532M532.5 533V532.5H533V532V531.5H533.5V531M532 533V532.5H531.5V532H531V531.5H530.5V531H530V530.5H529.5V530H529V529.5H528.5V527.5M532 533V533.5H531.5V534H531V534.5H530.5V535H530V535.5H529.252V536H528.5M528.5 520H528M528.5 520V522.5M528 520V530.5H528.5V536M528 520H524.5M528.5 539V536M533.5 531H534V530.5H534.5V530H535V529.5H535.5V529H536M533.5 531H532.5V530.5H532V530M528.5 527.5H529.5V528H530M528.5 527.5V525.5M530 528V528.5H530.5V529H531V529.5H531.5V530H532M530 528V527H530.5V526.5H531V526H531.5V525.5H532V525H532.5V524.5H533V524H533.5V523.5H534V523H534.5V522.5H535V522H535.5V521.5H536V521H536.5M532 530V528.5H532.5V528H533V527.5H533.5V527H534V526.5V526H534.5V525.5H535V525H535.5V524.5H536V524H536.5M536.5 524V521M536.5 521V520M528.5 525.5H529V525H529.5V524.5H530V524H530.5V523.5H531V523H531.5V522.5H532V522H532.5V521.5H533V521H533.5V520.5H534V520H534.5V519.5H535V519M528.5 525.5V522.5M535 519H536.5V520M528.5 522.5H529V522H529.5V521.5H530V521H530.5V520.5H531V520H531.5V519.5H532V519M532 519H531.5M524.5 520V519H527M522.5 520V519H521V520M522.5 520H521M521 520H518.5M518.5 520V519H518V520M518.5 520H518M518 520H515.5M514.5 520V519H513.5V520M514.5 520H513.5M514.5 520H515.5M513.5 520H511.75M510 520H511.75M510 520V519.5M510 520H508M510 518V519.5M511.75 520V519.5M510 519.5H511.75M511.75 519.5V518.177V517.59M506.5 519H508V520M506.5 519V520M506.5 519V518.267H506L505 518.256H504.5V517.756H503.985M508 520H506.5M506.5 520H502.5M502.5 520V519H503M502.5 520H501M501 520V519H499.5V520M501 520H499.5M499.5 520H497.5M497.5 520V519H496.5M497.5 520H496.5M496.5 519V520M496.5 519H495V517.745V517.245H494.388M496.5 520H494M494 520V519H493.5H493V520M494 520H493M493 520H490.5M490.5 520V519M490.5 520H489M490.5 519H491.5V518.245V517.245H492.5M490.5 519H489.5M489 520V519H489.5M489 520H487M487 520V519H486M487 520H485M485 519V520M485 519H486M485 519V517H484V516.473H483.5H482.214V515.167H483V513.067M485 519H486.5M485 520H483.5M486 519L485.983 518.177L486 513.079M483.5 520V519H482.5M483.5 520H469.5M469.5 519V520M469.5 519H468V517H467V516.473H466.5H465.214V515.167M469.5 519V518.167M469.5 519H482.5M469.5 520H467.5M467.5 520V519.5H465.5M467.5 520H465.5M465.5 519.5V520M465.5 519.5V518.177H465L464 518.167H463.5V517.667H460.5H460V517.167H459.388M465.5 520H464M464 520V519H459.5V520M464 520H459.5M459.5 520H457M457 520H455.5M457 520V519M455.5 519V520M455.5 519H457M455.5 519V518.167M455.5 520H454M454 520V519H451.5M454 520H451.5M451.5 519V520M451.5 519V516.473H451H449.714V515.167H450.5V513M451.5 520H449.5M457 519V518.177L456.5 518.167M449.5 520V519M449.5 520H448M449.5 519H448V520M449.5 519V518.177L448.5 518.167H448V517.667H445H444.5V517.167H443.888M448 520H446M446 520V519H445V520M446 520H445M445 520H443M443 520H441M443 520V519.25M441 520V519.25M441 520H435.5M441 519.25V518.5H443V519.25M441 519.25H443M441 519.25H438M435.5 520V519.25H436M435.5 520H432M432 520H430.5M432 520V519H431M430.5 520V519H431M430.5 520H428.5M427.5 520H428.5M427.5 520H425.384M427.5 520V519M428.5 520V519M428.5 519H427.5M428.5 519V518.5M425.384 520H424M425.384 520V519M424 520V519M424 520H418M424 519H420M424 519H425.384M424 519V517.844H424.5H425V518.177H425.384V519M420 519V518H418V519M420 519H418M418 520V519M418 520H413M418 519H417M413 519V520M413 519V518.277M413 519H417M413 520H411M411 520V519H409.5V520M411 520H409.5M409.5 520H408M408 520V519M408 520H405.5M408 519H405.5V520M408 519V518.277H409M405.5 520H404M404 520V519H403M404 520H396M396 519V520M396 519H393.5M396 519V517.954M396 519H396.5M396 520H393.5M393.5 520H386M393.5 520V519.25M393.5 519H393V518.5H392.5M393.5 519V519.25M392.5 518.5V518H392M392.5 518.5H386M392 518V517M392 518H386M392.5 515.5V516H392V516.25M392.5 515.5H393V514.75M392.5 515.5H385M393 513.223V514M393 513.223C392.089 513.226 391.312 513.229 390.579 513.232M393 513.223C394.115 513.219 395.207 513.215 396.278 513.211M386 513.249V514M386 513.249C385.641 513.25 385.311 513.252 385 513.253M386 513.249C387.154 513.245 388.094 513.241 389 513.238M386 514H385.5V514.5H385V514.75M386 514H393M385.5 517H385V516.25M385.5 517V518H386M385.5 517H392M386 518V518.5M386 520V519.25M386 520H381M393 514V514.75M393 514.75H385M385 515.5V514.75M385 515.5V516.25M385 515.5H383.5V516H383V516.5H382.5V516L382 516.026V515.526H381M385 516.25H392M392 516.25V517M386 518.5H382V519M386 518.5V519M386 519.25H393.5M386 519.25V519M382 519H381.5V519.5H381M382 519H386M381 519.5V520M381 519.5V517.526M381 520H378.5M379 519.5V519H378.5V520M375 520V519.5H377.5V519H378V516.026M375 520H378.5M375 520H374.5M373 519V520M373 520H372M373 520H374.5M372 520V519M372 520H371.5M370 520V519H368.5M370 520H371M370 520H368.5M367.5 520V519H368.5M367.5 520H366.5M367.5 520H368.5M366.5 520V519M366.5 520H362M366.5 520V522.5M366.5 519H364M366.5 519V516.5M362 519V520M362 519H361.5V518.5H361V519H360.5V519.5H360V520M362 519V513.339M362 519H362.714M362 520H360M362 520V539M360 520H358M357.5 520V519H354M357.5 520H347M357.5 520H358M354 519V518.5H353.5V518.177H353M354 519H352.5M353 518.177V518.5H352.5V519M353 518.177V516H352V515V514.75H351V514H350V513.384M352.5 519H352V519.5H351M351 519.5V518.5H350M351 519.5H349M349 519.5V518.5H350M349 519.5H347V520M347 520H346M346 520V519H344M346 520H344M344 519V520M344 519V518.5H344.5V518H345V517.5V517M344 520H342M342 520V519H340V520M342 520H340M340 520H338M338 520V519H337.5V518.177H337V519H336.5V520M338 520H336.5M336.5 520H335.181M427.5 519V518.5H428.5M334.5 520V518.75M334.5 520H335.181M334.5 520H333.5M334.5 517.5H335V516H336M334.5 517.5V518.75M334.5 517.5H333.5V516.5V515.5M334.5 518.75H335.181V520M333.5 520H327M333.5 520V519.5M328 517H332.5V517.75V518.177M328 517H327M328 517V518.5M327 517V516H319M327 517V518.5M327 517H322M327 520V519.5M327 518.5H324.5M327 518.5V519.5M327 518.5H328M322 518.5H320.5M322 518.5V517.75M322 518.5H324.5M322 517H320.5M322 517V517.75M320.5 518.5V517M322 517.75H324.5V518.5M327 519.5H333.5M333.5 519.5V519H332.5V518.5M333.5 519.5H308.5H308M332.5 518.5H328M332.5 518.5V518.177M318 514.75H333.5M333.5 514.75V515.5M333.5 514.75V513.446M333.5 515.5H332.5M333.5 513.446L333 513.448M333.5 513.446L334.595 513.442M336 516V513.436M336 516V517H337V516M336 516H337M336 513.436L337.5 513.431M336 513.436L334.595 513.442M338.5 516V515.5H337.5V513.431M338.5 516H337M338.5 516V517.5H340.5M337.5 513.431L340.02 513.421M340.5 517.5V517H339.5V515.5H340.5V513.419M340.5 517.5H343V517H342.5V516.5H342V516H341.5V513.416M340.5 513.419L340.02 513.421M340.5 513.419L340.783 513.418M341.5 513.416L343 513.41M341.5 513.416L340.783 513.418M345 517H344.5V516.5V516H344V515.5H343.5V515H343V513.41M345 517H350M343 513.41L344.789 513.403M344.789 513.403V514.294H348V516H348.5V516.5H350V517M344.789 513.403L345.183 513.402M350 518.5V517M350 513.384L350.589 513.382M350 513.384L346 513.399M355 513.365V514.294M355 513.365C355.555 513.363 356.061 513.361 356.537 513.359M355 513.365L351.615 513.378M355 517.5H356H354H355ZM355 517.5V514.294M355 514.294H356.888M358.775 516.807H359.828V514.294H358.775M358.775 516.807V517.75V514.294M358.775 516.807V514.294M358.775 514.294H356.888M356.888 514.294V517.5H357.5V518H358V520M362 513.339L362.714 513.336M362 513.339C361.661 513.34 361.34 513.341 361.033 513.343M362 513.339V472.66M362.714 513.336L363.5 513.333M362.714 513.336V515.5M362.714 513.336V471.532M362.714 519V516.807M362.714 519H364M363.5 513.333V514M363.5 513.333C365.28 513.327 366.347 513.323 368 513.317M362.714 515.5H363.5V514M362.714 515.5V516.807M362.714 516.807H364V519M363.5 514H366.5V516.5M368.5 513.315V515.5H369.25M368.5 513.315L369.25 513.312M368.5 513.315C368.327 513.315 368.161 513.316 368 513.317M368.5 513.315V493.5H368M370 513.309V515.5H369.25M370 513.309L369.25 513.312M370 513.309C370.797 513.306 371.308 513.304 372 513.302M369.25 515.5V516.25V513.312M372.5 513.3V515.5H373V517H372.5V517.5H372V518.177H371.5V519H371V520M372.5 513.3L374.5 513.292M372.5 513.3C372.321 513.3 372.156 513.301 372 513.302M372.5 513.3V493.5H372M371 520H371.5M366.5 516.5H367V517H367.5V517.5H368V518H368.5V519M374.664 513.292C375.381 513.289 375.783 513.287 376.5 513.285M374.664 513.292V517M374.664 513.292L374.5 513.292M374.664 519.964V517M420 518.277H420.5V517.5H421V517H421.714V515.277M413 518.277H412.5V517.954H412M413 518.277V517.277H414M412 517.954V518.277H411.5H410.319H410H409M412 517.954V515.777H411V514.777V514.527H410V513.777H409V513.161M396 517.954H396.5V519M396 517.954V516.777M395 515.777V513.213M395 515.777V516.777H396M395 515.777H396M397.5 515.777V515.277H396.5C396.5 515.277 396.5 514.016 396.5 513.208M397.5 515.777H396M397.5 515.777V517.277H399.5M396 516.777V515.777M399.5 517.277V516.777H398.5V515.277H399.5V513.197M399.5 517.277H402V516.777H401.5V516.277H401V515.777H400.5V513.193M404 516.777V517.277V517.777H403.5V518.277H403V519M404 516.777H403.5V515.777H403V515.277H402.5V514.777H402V513.187V482.058M404 516.777H409M403.789 513.181V514.072H407V515.777H407.5V516.277H409V516.777M409 518.277V516.777M414 513.142C414 513.5 414 514.072 414 514.072M414 517.277V514.072M414 517.277H415.888M414 514.072H415.888M417.775 514.072H418.828V516.584H417.775V514.072ZM417.775 514.072H415.888M415.888 514.072V517.277M415.888 517.277H416.5V517.777H417V519M421.714 513.113V515.277M422.5 513.11V513.777V515.277H421.714M441 518.167H440.5V517.844H440M440 517.844V518.167H439.5H438M440 517.844V515.667H439V514.667V514.417H438V513.667M425.5 515.667V515.167H424.5V513.105M425.5 515.667H424M425.5 515.667V517.167H427.5M424 515.667H423V516.667H424V515.667ZM427.5 517.167V516.667H426.5V515.167H427.5V513.094M427.5 517.167H428.5M432 516.667V517.167V517.667H431.5V518.167H431V519M432 516.667H431.5V516.167V515.667H431V515.167H430.5V514.667H430V513.084M432 516.667H437M435 513.961H431.789V513.078M435 513.961V515.667H435.5V516.167H437V516.667M435 513.961V513.066M438 518.167H437M438 518.167V519.25M437 518.167H436V519.25M437 518.167V516.667M438 513.667H437V513.058M438 513.667V513.054M442 517.167H443H443.888M442 517.167H441V513.043M442 517.167V513.961H443.888M446.828 513.961V516.473H445.775V513.961M446.828 513.961H445.775M446.828 513.961V513.021M445.775 513.961H443.888M443.888 513.961V517.167M443.888 513.961V513.032M396.5 519H403M428.5 518.5V518V517.167M428.5 517.167H430V516.667H429.5V516.167H429V515.667H428.5V513.09M436 519.25H438M456.5 518.167H456V517.844H455.5M456.5 518.167V517.167H457.5M455.5 517.844V518.167M455.5 517.844V515.667M455.5 518.167H455H453.5H452.5V516.667V516.167V513.667M452.5 513.667H453.5V514.417H454.5V514.667V515.667H455.5M457.5 517.167H458.5H459.388M457.5 517.167V513.961M457.5 513.961H459.388M457.5 513.961V513M461.275 513.961H462.328V516.473H461.275V513.961ZM461.275 513.961H459.388M459.388 513.961V517.167M464.5 513.006L465.214 513.003M465.214 513.003L466 513V513.667V515.167H465.214M465.214 513.003V515.167M481 519H476.5M471 520V519H468.5M473.5 518.167H473V517.844H472.5M473.5 518.167L474 518.177V519H472.5V518.167M473.5 518.167V517.167H474.5M472.5 517.844V518.167M472.5 517.844V515.667H471.5V514.667V514.417H470.5V513.667M472.5 518.167H472H470.5H469.5M469.5 518.167V516.667V516.167V513.667M469.5 513.667H470.5M469.5 513.667V513.015M470.5 513.667V513.019M474.5 517.167H475.5H476.388M474.5 517.167V513.961H476.388M479.328 513.961V516.473H478.275V513.961M479.328 513.961H478.275M479.328 513.961V513.053M478.275 513.961H476.388M476.388 513.961V517.167M476.388 513.961V513.042M476.388 517.167H477V517.667H477.5H480.5V518.167H481L482 518.177H482.5V519M469.5 513.015L470.5 513.019M469.5 513.015L467.5 513.008M470.5 513.019L471.254 513.022M476.388 513.042L479.194 513.053M476.388 513.042L475.223 513.037M479.328 513.053L483 513.067M479.328 513.053L479.194 513.053M483 513.067C484.172 513.072 484.828 513.074 486 513.079M483 513.067V497.973M486 513.079C486.246 513.079 486.491 513.08 486.736 513.081M376.5 516.026V517.026M376.5 516.026H377.5M376.5 516.026V513.285M379 516.026V515.526H378V513.279M379 516.026V517.526H381M379 516.026H378M376.5 517.026H377.5V516.026M376.5 517.026L374.664 517M377.5 516.026H378M381 517.526V517.026H380V515.526H381M381 515.526V513.268M376.5 513.285C377.086 513.282 377.414 513.281 378 513.279M378 513.279V488M378 513.279C378.303 513.278 378.571 513.277 378.822 513.276M381 513.268C380.48 513.27 380.061 513.271 379.654 513.273M381 513.268C382.326 513.263 383.256 513.259 384.329 513.255M378.5 520V539M492.5 517.245H493.5H494.388M492.5 517.245V514.039H494.388M497.328 514.039V516.552H496.275V514.039M497.328 514.039H496.275M497.328 514.039V513.131M496.275 514.039H494.388M494.388 514.039V517.245M494.388 514.039V513.12V496.861M501.5 516.552H500.214V515.245H501V514.5M501.5 516.552H502V517.078C502 517.078 502.609 517.078 503 517.078V519M501.5 516.552V518.255H500.5H500L499 518.245H498.5V517.745V513.126M488.5 513.097V513.745V514.495H489.5V514.745V515.745H490.5V517H490V517.5H489.5V519M503 519H504L503.983 518.255L503.985 517.756M498.5 513.126C498.626 513.127 498.753 513.127 498.879 513.128M498.5 513.126C497.346 513.122 496.18 513.118 495 513.113M509.983 518.267L510 513.168L509.915 513.168M513.5 515.834V514.834V514.584H512.5V513.834V513.18M513.5 515.834H514.5V517.09H514V517.59H513.5H511.75M513.5 515.834H511.75V517.59M516.5 517.334H517.5H518.388M516.5 517.334H515.5V518.334V520M516.5 517.334V514.129H518.388M520.276 514.129H521.328V516.641H520.276V514.129ZM520.276 514.129H518.388M518.388 514.129V517.334M518.388 517.334H519V517.834M525 515.334H524.214V516.641M525 515.334V513.235M525 515.334H527M524.214 516.641H525.5M524.214 516.641H522.5V517.834V518.334H523L524 518.345H524.5H525.5V516.641M525.5 516.641H526V517.168H527M527 517.168V519M527 517.168V515.334M512.5 513.18V465.214M512.5 513.18C514.032 513.186 515.546 513.192 517.044 513.198M512.5 513.18C511.784 513.177 511.064 513.175 510.34 513.172M503.985 517.756L503.984 514.5M509 513.164L507 513.157V514.5M509 513.164V517.09H508V516.563H507.5H506.214V515.256H507V514.5M509 513.164L509.915 513.168M431.789 513.078C431.189 513.08 430.593 513.082 430 513.084M431.789 513.078C431.937 513.077 432.085 513.076 432.234 513.076M435 513.066C435.661 513.063 436.327 513.061 437 513.058M435 513.066C434.068 513.069 433.147 513.073 432.234 513.076M437 513.058C437.166 513.057 437.333 513.057 437.5 513.056M438 513.054C437.833 513.055 437.666 513.056 437.5 513.056M438 513.054C438.607 513.052 439.219 513.05 439.838 513.047M443.888 513.032C442.909 513.036 441.947 513.04 441 513.043M443.888 513.032C444.256 513.031 444.627 513.03 445 513.028M446.828 513.021C446.458 513.023 446.091 513.024 445.726 513.025M446.828 513.021C447.216 513.02 447.607 513.018 448 513.017M441 513.043C440.61 513.045 440.223 513.046 439.838 513.047M427.5 513.094C427.833 513.092 428.166 513.091 428.5 513.09M427.5 513.094C426.797 513.096 426.096 513.099 425.397 513.102M428.5 513.09C428.998 513.088 429.498 513.086 430 513.084M430 513.084V500.945M424.5 513.105C424.333 513.105 424.167 513.106 424 513.107M424.5 513.105C424.799 513.104 425.098 513.103 425.397 513.102M457.5 513C458.559 513 459.499 513 460.5 513M461 513C460.831 513 460.665 513 460.5 513M532.5 516V516.5H532V517H531.5V519M534.5 513.264V513.882M534.5 513.264C535 513.266 535.5 513.268 536 513.27M534.5 513.264C534.001 513.262 533.501 513.261 533 513.259M534.5 514.5H538M534.5 514.5V513.882M538 514.5V513.889M538 514.5L538.002 517.756M538 513.278V513.889M538 513.278C537.5 513.276 537 513.274 536.5 513.272M538 513.278C538.744 513.281 539.487 513.284 540.23 513.286M538 513.889L534.5 513.882M536.5 520H538M555.017 520V519H556.517V520M548.517 519H547.517H545.767V518.177V517.59M548.517 519V520M548.517 519H549.517M547.517 515.834V514.834V514.584H546.517V513.31M547.517 515.834H548.517V517.09H548.017V517.59H547.517H545.767M547.517 515.834H545.767V517.59M550.517 517.334H551.517H552.404M550.517 517.334H549.517V518.334V519M550.517 517.334V514.129M550.517 514.129H552.404M550.517 514.129V513.326M555.344 514.129V516.641M555.344 514.129H554.292M555.344 514.129H558M555.344 516.641H554.292V514.129M555.344 516.641V517.834H553.017V517.334H552.404M554.292 514.129H552.404M552.404 514.129V517.334M538.002 517.756L538 518.255V520M538.002 517.756H538.517V518.256H539.017L540.017 518.267H540.517V519H542.017V520M538 520H541.5M542.017 520H544.017M542.017 520H541.5M541.017 513.289V515.256H540.23V516.563H541.517H542.017V517.09H543.017V513.297M541.017 513.289C541.683 513.292 542.35 513.295 543.017 513.297M541.017 513.289C540.754 513.288 540.492 513.287 540.23 513.286M543.017 513.297V471.769M543.017 513.297C543.203 513.298 543.389 513.298 543.575 513.299M545 520V518H544.017V519.5V520M545 520H544.017M545 520H548.517M546.517 513.31C546.178 513.309 545.839 513.308 545.5 513.307M546.517 513.31C547.157 513.313 547.799 513.315 548.442 513.318M548.517 520H552.517M552.517 520V519H552.017H549.517M552.517 520H554M556.517 520H558.5M556.517 520H554M569 514.129H558M569 514.129V515M569 514.129V513.397M568.5 516.563H569V515.781M568.5 516.563H558M568.5 516.563V517.5M568 520H559M568 520V519.25M568 520H570M558 514.129V515M558 514.129V513.354M558.5 517.5V517H558V516.563M558.5 517.5H559M558.5 517.5V520M559 517.5H568.5M559 517.5V518.5M559 520V519.25M559 520H558.5M558 515H569M558 515V515.834M569 515V515.781M558 515.834L569 515.781M558 515.834V516.563M568.5 517.5V518H568V518.5M559 518.5H568M559 518.5V519.25M568 518.5V519.25M559 519.25H568M569 513.397C569.581 513.399 570.164 513.401 570.75 513.403M569 513.397V510M569 513.397C568.833 513.396 568.666 513.395 568.5 513.395M558 513.354C558.167 513.355 558.333 513.356 558.5 513.356M558 513.354C557.111 513.351 556.226 513.348 555.344 513.344M550.517 513.326C549.824 513.323 549.132 513.321 548.442 513.318M550.517 513.326C551.12 513.328 551.724 513.33 552.329 513.333M579.25 518.871H580.75M579.25 518.871H576.75H576.25M579.25 518.871V520M580.75 518.871V518.048V517.461M580.75 518.871H582.5H583.5H584.5M576.25 518.871H573.75M576.25 518.871V517.206M572.75 518.871H571.75M572.75 518.871H573.75M572.75 518.871V520M571.75 518.871H570M571.75 518.871V517.461M571.75 515.706V514.706V514.456H570.75V513.403M571.75 515.706H572.75V516.961H572.25V517.461H571.75M571.75 515.706H570V517.461M574.75 517.206H575.75H576.25M574.75 517.206H573.75V518.206V518.871M574.75 517.206V514H576.638M579.578 514V516.512M579.578 514H578.526M579.578 514V513.437M579.578 516.512H578.526V514M579.578 516.512V517.706H577.25V517.206H576.638M578.526 514H576.638M576.638 514V517.206M576.638 517.206H576.25M571.75 517.461H570M570 517.461V518.048V518.871M570 518.871V520M582.5 515.706V514.706V514.456H581.5V513.445M582.5 515.706H583.5V516.961H583V517.461H582.5H580.75M582.5 515.706H580.75V517.461M585.5 517.206H586.5H587.388M585.5 517.206H584.5V518.206V518.871M585.5 517.206V514H587.388M590.328 516.512V514H589.276M590.328 516.512H589.276V514M590.328 516.512V517.706H588V517.206H587.388M589.276 514H587.388M587.388 514V517.206M584.5 518.871H587H587.5V520M570.75 513.403C571.548 513.406 572.35 513.409 573.158 513.413M570 520H572.75M572.75 520H579.25M579.25 520H587.5M579.578 513.437C578.267 513.432 576.971 513.427 575.691 513.422M579.578 513.437C579.804 513.438 580.03 513.439 580.257 513.44M581.5 513.445C583.462 513.452 585.46 513.46 587.5 513.467M581.5 513.445C579.469 511.445 577.535 509.532 575.691 507.697M581.5 513.445C581.084 513.443 580.67 513.441 580.257 513.44M589.5 520H597.5V519.167M589.5 520V519.5H590V519.186M591.5 513.483V514.5M591.5 513.483C591.333 513.482 591.166 513.482 591 513.481M591.5 514.5V515.5M591.5 515.5V516.512M595 516.5L591.5 516.512M591.5 516.512V517.5M591.5 517.5V518.334M591.5 518.334V518.871H591M591.5 518.334H597.5M597.5 518.334V519.167M590 519.186V518.871H591M590 519.186L597.5 519.167M591 513.481V518.871M591 513.481C589.82 513.476 588.653 513.472 587.5 513.467M526.5 439.75H539M539 439.75V440.5M539 440.5V441.5M526 441.5V442H525V442.5M526 441.5H539M539 441.5V442.5M525 442.5V445H524C522.477 448.305 520.952 451.328 519.381 454.175M525 442.5H525.5M539 442.5H538.5M539 442.5C539.243 444.293 539.655 446.119 540.23 447.985M536 442.5H538H538.5M536 442.5H529M536 442.5V452M536 442.5C534.982 444.931 533.993 447.029 532.955 449M531 451.5H530.5V452M530.5 452H530V453H529.5M530.5 452H531M529.5 453V454M529.5 453H528.5M529.5 457V457.5V458H530.25M529.5 457V454M529.5 457H528.5V458H527.511M526 442.5H525.5M526 442.5V460M526 442.5H527M525.5 442.5V460.5V513.23M529 442.5H528H527M529 442.5V447.985M535.5 457H536.5V458M535.5 457V456M535.5 457H531M536 452V453H536.5V454M536 452H535.5V453H535V453.5H532V453V452.5H531.5V452H531M536.5 458H531.5M536.5 458V467.336M529.5 454H530.25M536.5 454V454.5H535.5V455M536.5 454H530.25M531 452V455M531 458H530.25M531 458V457M531 458H531.5M530.25 458V454M535.5 455H531M535.5 455V456M531 455V456M535.5 456H531M531 456V457M528.5 453V454.5H529V455V456M528.5 453V447.985M526 460H526.179M526 460V513.232M526.179 460C526.068 460.165 525.956 460.332 525.844 460.5C525.412 461.143 524.965 461.808 524.5 462.5C523.782 463.52 523.07 464.52 522.365 465.5M526.179 460C526.641 459.31 527.084 458.646 527.511 458M465.5 506.25C467.672 506.03 469.524 505.826 471.254 505.594M418.5 488C415.809 485.671 413.321 483.469 411 481.355M418.5 488V513.127M418.5 488C420.968 489.836 423.253 491.499 425.397 493M374.5 442V453H373.5V453.5M374.5 442C372.865 451.709 369.64 460.465 362.714 471.532M374.5 442H373M330.002 513.459L333 513.448M330.002 513.459C331.588 511.624 333.118 509.842 334.595 508.11M330.002 513.459L324.669 513.479M368 513.317V493.5M373.5 473.5H374.5V487V488H373.5M373.5 473.5H367M373.5 473.5V473M374.5 492.5H373.5V491M374.5 492.5V513.187V513.292M374.5 492.5V492H372M367 469H366.5V458H367V457.5M367 469V470M367 469H369M367 473.5H366.5V488H367M367 473.5V473M367 488V489M367 488H368M366.5 492H367V491M366.5 492V513.339M366.5 492H368M373.5 488V489M373.5 488H372M367 489H373.5M367 489V490M373.5 489V490M367 490H373.5M367 490V491M373.5 490V491M367 491H373.5M374.5 469V458H373.5V457.5M374.5 469V469.5H373.5V470M374.5 469H372M367 470H373.5M367 470V471M373.5 470V471M367 471H373.5M367 471V472M373.5 471V472M367 472H373.5M367 472V473M373.5 472V473M367 473H373.5M367 453.5V454.5M367 453.5H369M373.5 453.5V454.5M373.5 453.5H369M367 454.5H373.5M367 454.5V455.5M373.5 454.5V455.5M367 455.5H373.5M367 455.5V456.5M373.5 455.5V456.5M367 456.5H373.5M367 456.5V457.5M373.5 456.5V457.5M367 457.5H373.5M361.033 456V513.343M361.033 456C359.752 459.175 358.256 462.289 356.537 465.406M361.033 513.343C359.911 513.347 358.975 513.35 358 513.354M356.537 465.406V513.359M356.537 465.406C354.788 468.579 352.808 471.755 350.589 475M356.537 513.359C356.87 513.358 357.189 513.357 357.5 513.356M357.5 513.356V479.324M357.5 513.356C357.669 513.355 357.835 513.355 358 513.354M357.5 479.324C357.668 479.087 357.835 478.85 358 478.615M357.5 479.324C355.72 481.838 353.764 484.48 351.615 487.279M358 478.615V513.354M358 478.615C359.449 476.549 360.779 474.57 362 472.66M362 472.66C362.242 472.282 362.48 471.906 362.714 471.532M350.589 475V513.382M350.589 475C348.923 477.437 347.122 479.913 345.183 482.456M350.589 513.382L351.615 513.378M351.615 513.378V487.279M351.615 487.279C349.873 489.545 348.005 491.915 346 494.401M345.183 482.456V513.402M345.183 482.456C343.559 484.584 341.839 486.76 340.02 489M345.183 513.402L346 513.399M346 513.399V494.401M346 494.401C344.355 496.441 342.618 498.56 340.783 500.767M340.02 489V513.421M340.02 489C337.825 491.701 335.487 494.495 333 497.411M340.783 513.418V500.767M340.783 500.767C338.833 503.113 336.772 505.557 334.595 508.11M333 497.411V513.448M333 497.411C330.388 500.474 327.612 503.672 324.669 507.038M334.595 513.442V508.11M323.827 508V513.482M323.827 508C324.109 507.678 324.39 507.357 324.669 507.038M323.827 513.482L324.669 513.479M324.669 507.038V513.479M369 458V469M369 469H372M373 442V453M372 458V469M372 474V488M372 488H368M368 474V488M368 492V493.5M368 492H372M372 492V493.5M372 513.302V493.5M379.654 445V513.273M379.654 445C381.48 447.716 383.245 450.257 385 452.679M379.654 513.273C379.381 513.274 379.113 513.275 378.822 513.276M377.592 454.199V488M377.592 454.199C377.728 454.376 377.864 454.552 378 454.728M377.592 513.268V488M377.592 488H378M378 488V454.728M385 452.679V513.253M385 452.679C386.849 455.231 388.688 457.65 390.579 460M385 513.253C384.767 513.254 384.545 513.254 384.329 513.255M383.741 462V513.208M383.741 462C383.938 462.244 384.133 462.485 384.329 462.726M383.741 462C382.161 460.045 380.526 457.979 378.822 455.788M390.579 460V513V513.232M390.579 460C392.771 462.725 395.033 465.359 397.46 468M389 468.337V488.5M389 468.337C387.491 466.573 385.938 464.707 384.329 462.726M389 468.337C389.167 468.532 389.334 468.726 389.5 468.919M389 513.238V488.5M389 513.238C389.167 513.237 389.334 513.237 389.5 513.236M397.46 468V513.142M397.46 468C399.578 470.305 401.822 472.616 404.256 475M389 488.5H389.5M389.5 488.5V513.142V513.236M389.5 488.5V468.919M389.5 513.236C389.856 513.235 390.212 513.233 390.579 513.232M384.329 462.726V513.255M378 454.728C378.276 455.084 378.55 455.438 378.822 455.788M389.5 468.919C391.844 471.642 394.086 474.119 396.278 476.407M378.822 455.788V513.276M396.278 476.407V513.211M396.278 476.407C398.212 478.426 400.107 480.297 402 482.058M396.278 513.211C398.502 513.202 400.634 513.194 402.695 513.187M402.695 482.7V513.187M402.695 482.7C402.463 482.488 402.232 482.274 402 482.058M402.695 482.7C404.739 484.574 406.786 486.325 408.881 488M402.695 513.187C403.22 513.185 403.74 513.183 404.256 513.181M404.256 475V513.181M404.256 475C406.35 477.05 408.584 479.155 411 481.355M404.256 513.181C405.835 513.175 407.373 513.169 408.881 513.163M411 481.355V513.155M411 513.155C410.546 513.157 410.09 513.159 409.632 513.161M411 513.155C412.829 513.149 414.618 513.142 416.386 513.135M408.881 488V513.163M408.881 488C409.13 488.2 409.381 488.398 409.632 488.595M408.881 513.163C409.132 513.162 409.382 513.161 409.632 513.161M409.632 513.161V488.595M409.632 488.595C411.809 490.309 414.044 491.948 416.386 493.565M416.386 493.565V513.135M416.386 493.565C416.59 493.706 416.794 493.847 417 493.987M416.386 513.135C416.591 513.134 416.796 513.134 417 513.133M417 513.133V493.987M417 513.133C417.501 513.131 418.001 513.129 418.5 513.127M417 493.987C417.495 494.325 417.995 494.663 418.5 495C420.122 495.889 421.665 496.721 423.141 497.5M418.5 513.127C420.054 513.122 421.597 513.116 423.141 513.11M423.141 497.5V513.11M423.141 497.5C423.43 497.652 423.716 497.803 424 497.951M423.141 513.11C423.428 513.109 423.714 513.108 424 513.107M424 513.107V497.951M424 497.951C426.127 499.061 428.114 500.057 430 500.945M425.397 493V513.102M425.397 493C427.841 494.712 430.1 496.215 432.234 497.529M430 500.945C432.671 502.202 435.136 503.243 437.5 504.085M432.234 497.529V513.076M432.234 497.529C434.928 499.188 437.423 500.545 439.838 501.642M437.5 504.085V513.056M437.5 504.085C440.076 505.004 442.532 505.689 445 506.163M439.838 501.642V513.047M439.838 501.642C442.603 502.898 445.263 503.812 448 504.444M445 506.163V513.028M445 506.163C445.242 506.21 445.484 506.254 445.726 506.297M445 513.028C445.241 513.027 445.483 513.026 445.726 513.025M445.726 506.297V513.025M445.726 506.297C447.774 506.656 449.84 506.873 452 506.963M448 504.444V513.017M448 504.444C450.191 504.95 452.431 505.276 454.811 505.453M448 513.017C449.301 513.012 450.633 513.007 452 513.002M452 506.963V513.002M454.811 505.453V513M529 447.985C530.307 453.331 532.393 456.9 536 462C538.327 465.415 540.621 468.619 543.017 471.769M529 447.985C527.886 445.147 527.595 444.252 527 442.5M536.5 469H535.5M536.5 469V470H532.955M536.5 469V467.336M535.5 469V470.5M535.5 469V467.336H536.5M535.5 473.5H536.5V487V487.5H535.5M535.5 473.5V472.5M535.5 473.5H529M535.5 487.5H529M535.5 487.5V488M535.5 492H536M535.5 492H533M535.5 492V491M536.5 513.272V492H536M536.5 513.272C536.333 513.271 536.167 513.271 536 513.27M536 492V513.27M527.511 458C529.63 454.794 531.35 452.048 532.955 449M527.511 458L527.502 467.336M532.955 449V470M532.955 470H531.5M531.5 458V470M531.5 470H528.732M532.955 474V488M531.5 474V488M529 487.5H528.25M529 487.5V488M529 492H531.5M529 492H528.25M529 492V491M527.5 513.238V492H528.25M527.5 513.238C527.75 513.239 528 513.24 528.25 513.24M527.5 513.238C527.001 513.236 526.501 513.234 526 513.232M531.5 492V513.253M531.5 492H533M531.5 513.253C532.001 513.255 532.501 513.257 533 513.259M531.5 513.253C530.421 513.249 529.338 513.245 528.25 513.24M533 513.259V492M528.25 487.5H527.5L527.509 475.191M528.25 487.5V492M528.25 492V513.24M529 488H535.5M529 488V489M535.5 488V489M529 489H535.5M529 489V490M535.5 489V490M529 490H535.5M529 490V491M535.5 490V491M529 491H535.5M527.502 467.336L527.5 470H528.116M527.502 467.336H528.117M528.732 470V467.336H528.117M528.732 470H528.116M528.732 470V472.5M528.117 467.336L528.116 470M528.732 473.5H527.511L527.509 475.191M528.732 473.5V472.5M528.732 473.5H529M528.732 472.5H535.5M535.5 472.5V471.5M535.5 471.5H529V470.5H535.5M535.5 471.5V470.5M525.5 513.23C525.667 513.231 525.833 513.231 526 513.232M525.5 513.23C524.46 513.226 523.416 513.222 522.365 513.218M522.365 465.5V513.218M522.365 465.5C520.55 468.021 518.776 470.409 517.044 472.666M522.365 513.218C521.376 513.214 520.382 513.21 519.381 513.206M519.381 513.206V454.175M519.381 513.206C518.606 513.204 517.827 513.201 517.044 513.198M519.381 454.175C517.216 458.099 514.962 461.686 512.5 465.214M512.5 465.214C510.438 468.168 508.23 471.08 505.806 474.112M517.044 513.198V472.666M517.044 472.666C514.736 475.673 512.502 478.449 510.34 481M527.509 475.191H527.98V474.5H528.25H529V473.5M510.34 481V513.172M510.34 481C510.198 481.168 510.056 481.334 509.915 481.5M510.34 513.172C508.848 513.166 507.337 513.16 505.806 513.154M505.806 474.112V513.154M505.806 474.112C503.679 476.772 501.386 479.523 498.879 482.476M505.806 513.154C505.202 513.152 504.594 513.15 503.983 513.147M503.983 513.147L503.984 514.5M503.983 513.147C503.521 513.146 503.057 513.144 502.591 513.142M501 513.136V514.5M501 513.136C500.298 513.133 499.59 513.131 498.879 513.128M501 513.136C501.42 513.138 501.839 513.139 502.256 513.141M501 514.5H503.984M503.984 514.5H507M502.591 489.5V513.142M502.591 489.5C502.479 489.613 502.367 489.725 502.256 489.836M502.591 489.5C504.933 487.139 507.374 484.476 509.915 481.5M502.591 513.142C502.479 513.142 502.367 513.141 502.256 513.141M498.879 513.128V482.476M498.879 482.476C496.75 484.984 494.466 487.636 492 490.5C491.75 490.735 491.505 490.967 491.262 491.194M494.388 496.861C494.591 496.703 494.795 496.543 495 496.38M494.388 496.861C491.678 498.964 489.128 500.585 486.736 501.746M495 513.113V496.38M495 513.113C493.769 513.108 492.524 513.104 491.262 513.099M495 496.38C497.304 494.546 499.721 492.37 502.256 489.836M502.256 489.836V513.141M509.915 481.5V513.168M491.262 491.194V513.099M491.262 491.194C491.057 491.387 490.854 491.577 490.653 491.765M491.262 513.099C491.06 513.098 490.857 513.097 490.653 513.096M490.653 491.765V513.096M490.653 491.765C488.081 494.166 485.813 496.162 483 497.973M490.653 513.096C489.365 513.091 488.059 513.086 486.736 513.081M486.736 501.746C485.083 502.548 483.504 503.131 482 503.5C481.006 503.746 480.079 503.967 479.194 504.167M486.736 501.746V513.081M483 497.973C480.852 499.357 478.385 500.633 475.223 501.9M479.194 504.167V513.053M479.194 504.167C476.342 504.811 473.945 505.235 471.254 505.594M475.223 501.9V513.037M475.223 501.9C473.027 502.779 470.495 503.654 467.5 504.557M475.223 513.037L471.254 513.022M471.254 505.594V513.022M467.5 504.557V513.008M460.5 506.5V513M538.5 442.5V448L539.5 447.985H540.23M540.23 447.985V513.286M540.23 447.985C541.364 451.661 543.133 455.493 545.5 459.538M543.017 471.769C543.202 472.013 543.388 472.257 543.575 472.5M545.5 459.538V513.307M545.5 459.538C548.824 465.22 553.328 471.321 558.905 478M545.5 513.307C544.858 513.304 544.216 513.302 543.575 513.299M548.442 478.602V513.318M548.442 478.602C546.749 476.557 545.138 474.538 543.575 472.5M548.442 478.602C548.618 478.814 548.794 479.027 548.972 479.24M552.329 513.333L552.017 469M552.329 513.333C553.212 513.336 554.098 513.34 554.987 513.343M554.987 486.177V513.343M554.987 486.177C552.845 483.791 550.856 481.498 548.972 479.24M554.987 486.177C555.123 486.328 555.259 486.48 555.396 486.632M554.987 513.343C555.106 513.343 555.225 513.344 555.344 513.344M558.5 513.356C558.833 513.358 559.166 513.359 559.5 513.36M558.5 513.356V510M559 504H558.5V510M559 504V505H559.5M559 504L558.905 478M568.5 505V513.31V513.395M568.5 505V500.467M568.5 505H568M558.905 478C560.96 480.46 563.16 482.998 565.5 485.623M561.762 493.5V505M561.762 493.5C559.484 491.101 557.374 488.826 555.396 486.632M561.762 493.5C561.919 493.666 562.078 493.833 562.237 494M561.762 505H562.237M561.762 505H561.5M565.5 505V485.623M565.5 505H565M565.5 505H566M565.5 485.623C567.906 488.321 570.461 491.111 573.158 494M568.5 500.467C566.274 498.201 564.194 496.055 562.237 494M568.5 500.467C568.666 500.636 568.833 500.805 569 500.975M573.158 494V513.413M573.158 494C575.425 496.428 577.793 498.926 580.257 501.5M573.158 513.413C573.828 513.415 574.501 513.418 575.178 513.42M575.178 513.42V507.186M575.178 513.42C575.349 513.421 575.519 513.422 575.691 513.422M575.178 507.186C572.998 505.014 570.944 502.949 569 500.975M575.178 507.186C575.348 507.355 575.519 507.526 575.691 507.697M543.575 472.5V513.299M548.972 479.24V513.264M555.396 486.632L555.344 513.344M562.237 494V505M562.237 505V513.371M562.237 505H564M569 500.975V510M575.691 507.697V513.422M580.257 501.5V513.44M560.381 505V513.364M560.381 505H559.5M560.381 505H561.5M560.381 513.364C560.087 513.362 559.793 513.361 559.5 513.36M560.381 513.364C560.997 513.366 561.616 513.368 562.237 513.371M559.5 505V513.36M561.5 505V513.354M562.237 513.371C562.491 513.372 562.745 513.373 563 513.374M558.5 510H563M569 510H567M568.5 513.395C568.333 513.394 568.166 513.393 568 513.393M564 505V513.378M564 505H565M564 513.378C564.333 513.379 564.666 513.38 565 513.381M564 513.378C563.666 513.376 563.333 513.375 563 513.374M565 505V513.381M565 513.381C565.333 513.383 565.666 513.384 566 513.385M566 505V513.385M566 505H568M566 513.385C566.333 513.386 566.666 513.388 567 513.389M568 505V513.393M568 513.393C567.666 513.392 567.333 513.39 567 513.389M563 510V513.374M563 510H567M567 510V513.389M541.5 539V539.5H542V540H542.5V543.5M541.5 539V520M542.5 543.5H543V544M542.5 543.5H537.5M543 544H544V545H544.5M543 544V550.5M554 544.5H553V545H544.5M554 544.5V543V520M554 544.5H563.5M554 544.5V550.5M543 550.5H544.5M544.5 545V550.5M544.5 550.5H554M554 520V505H569.5V538.5H571.5V538M589.5 509H588M589.5 509V491M589.5 509V511M589.5 509L591 508H614L616.173 509M588 509V508.5M588 509V510M571.5 550.5V539H563.5V544.5M571.5 550.5H563.5M571.5 550.5H580M563.5 550.5V544.5M563.5 550.5H554M571.5 538H580V550.5M571.5 538V536.5M580 550.5H588M374.5 539H373.5M374.5 539V537.5M374.5 539H378.5M373.5 539V543M373.5 539H372.5M373.5 543H375.5V543.5M373.5 543H367.5M375.5 549.559V550.5M375.5 549.559V545V544M375.5 549.559L374 549.568M375.5 550.5H360.5M375.5 550.5H381M360.5 550.5V549.607L365.5 549.616M360.5 550.5H360M365.5 549.616L369.5 549.594M365.5 549.616V546.5V544M365.5 544H366.5M365.5 544V543.5M365.5 544H364V543.5M366.5 544H367M366.5 544V543.5M367.5 543H366.5V543.5M367.5 543V541H366V539M366 539H362M366 539H366.5M361.5 539H360.5V541H360V543.5M361.5 539V543.5M361.5 539H362M360 543.5H359.5V544H358.5V544.5M360 543.5V550.5M360 543.5H361.5M358.5 544.5H350V545M358.5 544.5V547M350 545H349V545.5H348M350 545V547M346.5 545V545.5H347.5M346.5 545H346V546H345V545.5H344H343.5V546.5H342.5V545.5H342V546.5H340.5V545.5H339.5H339M346.5 545V540M339 545.5H337.5V544.5H337V544H336.5V542.5H335.5M339 545.5V547M350 550.5H339V549.5M350 550.5H358.5M350 550.5V549.5M360 550.5H358.5M358.5 550.5V548M358.5 548H350M358.5 548V547M350 548V549.5M350 548V547M375.5 544H374M375.5 544V543.5M374 544V549.568M374 544H371M374 549.568L371 549.585M371 544V549.585M371 544H369.5M371 549.585L369.5 549.594M369.5 544V549.594M369.5 544H368.5M368.5 544V549.559M368.5 544H367M367 544V549.559M361.5 543.5V544.5H362.5V543.5M361.5 543.5H362.5M366.5 543.5H365.5M362 539V539.5H362.5V540H363V540.5H363.5V541H364V541.5M364 541.5H364.5V542H365H365.5V543.5M364 541.5V543.5M365.5 543.5H364M364 543.5H362.5M339 549.5H350M339 549.5V547M350 547H358.5M347.5 545.5V546.5H348V545.5M347.5 545.5H348M368 539V538V537.5H368.5V537H369V536.5H369.5V536H370V535.5H370.5M368 539H366.5M368 539H372.5M370.5 535.5V535H371V534.5H371.5M370.5 535.5V536V536.5H371V537H371.5V537.5H372V538H372.5V539M371.5 534.5V534M371.5 534.5V535H372V535.5H372.5V536H373V536.5H373.5V537H374V537.5H374.5M371.5 534H372V533H372.5V532.5H373V532H373.5V531.5H374M371.5 534H371V533.5H370.5V533M374 531.5H374.5M374 531.5V529M374.5 531.5V528M374.5 531.5V537.5M374.5 528H374V529M374.5 528V524M370.5 533H370M370.5 533V532.5H371V532V531.5H371.5V531M370 533V532.5H369.5V532H369V531.5H368.5V531H368V530.5H367.5V530H367V529.5H366.5V527.5M370 533V533.5H369.5V534H369V534.5H368.5V535H368V535.5H367.252V536H366.5M366 530.5H366.5V536M366.5 539V536M371.5 531H372V530.5H372.5V530H373V529.5H373.5V529H374M371.5 531H370.5V530.5H370V530M366.5 527.5H367.5V528H368M366.5 527.5V525.5M368 528V528.5H368.5V529H369V529.5H369.5V530H370M368 528V527H368.5V526.5H369V526H369.5V525.5H370V525H370.5V524.5H371V524H371.5V523.5H372V523H372.5V522.5H373V522H373.5V521.5H374V521H374.5M370 530V528.5H370.5V528H371V527.5H371.5V527H372V526.5V526H372.5V525.5H373V525H373.5V524.5H374V524H374.5M374.5 524V521M374.5 521V520M366.5 525.5H367V525H367.5V524.5H368V524H368.5V523.5H369V523H369.5V522.5H370V522H370.5V521.5H371V521H371.5V520M366.5 525.5V522.5M366.5 522.5H367V522H367.5V521.5H368V521H368.5V520M380.5 543.5V540H380V539.5H379.5V539H378.5M380.5 543.5H381V544M380.5 543.5H375.5M381 544H382V545H382.5M381 544V550.5M381 550.5H382.5V545M382.5 545H391V544.5H391.5V544H392V543.5H392.5V543H395V550.5M395 550.5H330M335.5 542.5V540H335M335.5 542.5H330V550.5M335 540V538.5M335 540H322M335 538.5H334.5M335 538.5H346.5V540M334.5 538.5V537.25M334.5 538.5H307M334 533V531.5M334 533H307.5M334 533V535M332.5 518.177L333.5 518.167V521M332.5 518.177V516.839M328.5 477.5H327.5V476.5M328.5 477.5V433.5H328M328.5 477.5V479M326 454.728H325V454M326 454.728V445.5H325.5V437H325V433H324H323V432.5H322.818V432M326 454.728V456M324 441V441.5M323.5 441V438.5M315 454.728H316V454M315 454.728V445.5H315.5V437H316V433H317H318V432.5H318.182V432M315 454.728V456M312.5 477.5H313.5V476.5M312.5 477.5V433.5H313M312.5 477.5V479M309 514H310V513M309 514V515.5M309 514V412H303M307 538.5H306.5V540M307 538.5V537.25M306.5 540H306V542.5H305V544M306.5 540H314M305 544H304.5V544.5H304V545.5H303M305 544H311V543H311.5M302.5 547.5V545.5H303M302.5 547.5H301H298M302.5 547.5H308V550.5M298 547.5V550.5M298 547.5L273 473M298 550.5H294H282M298 550.5H308M273 473V476.407M273 473L267.87 472.936M273 545.5V544M273 545.5H263.5M273 545.5H280M315 432V431H316L317.227 422M315 432H314V432.5H313V433.5M315 432H316M313 433.5H328M326 432V431H325L323.773 422M326 432H327V432.5H328V433.5M326 432H325M317.227 422V431H317V431.5H316V432M317.227 422L318.182 415M316 432H318.182M323.773 422V431H324V431.5H325V432M323.773 422L322.818 415M325 432H322.818M318.182 415L320.5 398L322.818 415M318.182 415V432M318.182 432H322.818M322.818 415V432M317.5 437V435.5H323.5V437M317.5 437H323.5M317.5 437V438.5M323.5 437V438.5M317.5 438.5V441H317V441.5M317.5 438.5H323.5M317 441.5H324M317 441.5V443.5M324 441.5V443.5M317 443.5H324M317 443.5V445M324 443.5V445M317 445V445.5H316V447M317 445H324M324 445V445.5H325V447M316 447H325M316 447V448.5M325 447V448.5M316 448.5H325M316 448.5V450M325 448.5V450M316 450H325M316 450V452M325 450V452M316 452H325M316 452V454M325 452V454M316 454H325M315 456H326M315 456V458M326 456V458M315 458H326M315 458V460M326 458V460M315 460H326M315 460V462M326 460V462M315 462H326M315 462V463.5M326 462V463.5M315 463.5V464.5H313.5V466M315 463.5H326M326 463.5V464.5H327.5V466M313.5 466H327.5M313.5 466V468M327.5 466V468M313.5 468H327.5M313.5 468V470.5M327.5 468V470.5M313.5 470.5H327.5M313.5 470.5V472.5M327.5 470.5V472.5M313.5 472.5H327.5M313.5 472.5V474.5M327.5 472.5V474.5M313.5 474.5H327.5M313.5 474.5V476.5M327.5 474.5V476.5M313.5 476.5H327.5M312.5 484.5H328.5M312.5 484.5V483M312.5 484.5V486.5M328.5 484.5V483M328.5 484.5V486.5M311.5 490.5V489H312.5V488M311.5 490.5H329.5M311.5 490.5V492M329.5 490.5V489H328.5V488M329.5 490.5V492M312.5 479V480V481M312.5 479H328.5M328.5 479V480V481M312.5 481V482.456V483M312.5 481H328.5M328.5 481V482.456V483M312.5 483H328.5M312.5 486.5V487V488M312.5 486.5H328.5M328.5 486.5V487V488M312.5 488H328.5M311.5 492H329.5M311.5 492V494M329.5 492V494M311.5 494H329.5M311.5 494V495.75M329.5 494V495.75M311.5 495.75H329.5M311.5 495.75V497M329.5 495.75V497M311.5 497V497.5H310.5V499M311.5 497H329.5M329.5 497V497.5L330.751 497.529V499M310.5 499H330.751M310.5 499V501M330.751 499V501M310.5 501H330.751M310.5 501V502.5M330.751 501V502.5M310.5 502.5V503.5H310V505M310.5 502.5H330.751M330.751 502.5V503.5H331.5V505M310 505H331.5M310 505V507.038M331.5 505V507.038M310 507.038H331.5M310 507.038V509M331.5 507.038V509M310 509H331.5M310 509V511M331.5 509V511M310 511H331.5M310 511V513M331.5 511V513M310 513H331.5M331.5 513V514H332.5V515.5M309 515.5H332.5M309 515.5V516.839M332.5 515.5V516.839M309 516.839V518.177L308 518.167V519.5M309 516.839H332.5M333.5 521H308.5H308M333.5 521V522.5M333.5 522.5H308.5H308M333.5 522.5V524M333.5 524H308.5H308M333.5 524V525.5M333.5 525.5H308.5H308M333.5 525.5V527.5M308 525.5V524M308 525.5V527.5M308 524V522.5M308 522.5V521M308 521V519.5M308 527.5H333.5M308 527.5V529M333.5 527.5V529M308 529V530H307.5V531.5M308 529H333.5M333.5 529V530H334V531.5M307.5 531.5H334M307.5 531.5V533M307.5 533V535M307.5 535V536H307V537.25M307.5 535H334M334 535V536H334.5V537.25M307 537.25H334.5M314 540V541H313V542H312V542.5H311.5V543M314 540H322M311.5 543H314V544H315V544.5H316V545H317V545.5H318V546H318.5V547M318.5 547H319H327M318.5 547V548H319V548.5H320V550.5M339 547H327M320 550.5H322M320 550.5H308M322 540V543.5M322 543.5H327V547M322 543.5V550.5M327 547V550.5M330 550.5H327M322 550.5H327M346.5 540H360M580.75 445H576.479V447M580.75 445H582.5V447M580.75 445V538M580.75 547.815V545.5M576.479 447H582.5M576.479 447V449M582.5 447V449M576.479 449H582.5M576.479 449V451M582.5 449V451M576.479 451H582.5M576.479 451V452.5M582.5 451V452.5M576.479 452.5V453H575V454M576.479 452.5H582.5M582.5 452.5V453H584V454M575 454V454.5H573.158V455.5M575 454H584M584 454V455H584.943H586V455.5M573.158 455.5H586M573.158 455.5V457M586 455.5V457M573.158 457V457.5H571.5V459M573.158 457H586M586 457V457.5H588V459M571.5 459H588M571.5 459V460.5M588 459V460.5M571.5 460.5H588M571.5 460.5V462M588 460.5V462M571.5 462H588M571.5 462V463.5M588 462V463.5M571.5 463.5H588M571.5 463.5V465M588 463.5V465M571.5 465H588M571.5 465V466.5M588 465V466.5M571.5 466.5H588M571.5 466.5V468M588 466.5V468M571.5 468H588M571.5 468V469.5M588 468V469.5M571.5 469.5H588M571.5 469.5V471M588 469.5V471M571.5 471H588M571.5 471V472.5M588 471V472.5M571.5 472.5H588M571.5 472.5V474M588 472.5V474M571.5 474H588M571.5 474V475.5M588 474V475.5M571.5 475.5H588M571.5 475.5V476.5V477M588 475.5V476.5V477M571.5 477V478V478.5M571.5 477H588M588 477V478.5M571.5 478.5H588M571.5 478.5V480M588 478.5V480M571.5 480H588M571.5 480V481.5M588 480V481.5M571.5 481.5H588M571.5 481.5V483M588 481.5V483M571.5 483H588M571.5 483V484.5M588 483V484.5M571.5 484.5H588M571.5 484.5V486M588 484.5V486M571.5 486H588M571.5 486V487.5M588 486V487.5M571.5 487.5H588M571.5 487.5V489M588 487.5V489M571.5 489H588M571.5 489V490.5M588 489V490.5M571.5 490.5H588M571.5 490.5V492M588 490.5V492M571.5 492H588M571.5 492V493.5M588 492V493.5M571.5 493.5H588M571.5 493.5V495M588 493.5V495M571.5 495H588M571.5 495V496.5M588 495V496.5M571.5 496.5H588M571.5 496.5V498M588 496.5V498M571.5 498H588M571.5 498V499.5M588 498V499.5M571.5 499.5H588M571.5 499.5V500.975M588 499.5V500.975M571.5 500.975H588M571.5 500.975V502.5M588 500.975V502.5M571.5 502.5H588M571.5 502.5V504M588 502.5V504M571.5 504H588M571.5 504V505.5M588 504V505.5M571.5 505.5H588M571.5 505.5V507M588 505.5V507M571.5 507H588M571.5 507V508.5M588 507V508.5M571.5 508.5H588M571.5 508.5V510M571.5 510H588M571.5 510V511.5M588 510V511.5M571.5 511.5H588M571.5 511.5V514.706M588 511.5V514.706M571.5 514.706H588M571.5 514.706V516.641M588 514.706V516.641M571.5 516.641H588M571.5 516.641V521.5M588 516.641V521.5M571.5 521.5H588M571.5 521.5V523M588 521.5V523M571.5 523H588M571.5 523V524.5M588 523V524.5M571.5 524.5H588M571.5 524.5V526M588 524.5V526M571.5 526H588M571.5 526V527.5M588 526V527.5M571.5 527.5H588M571.5 527.5V529M588 527.5V529M571.5 529H588M571.5 529V530.5M588 529V530.5M571.5 530.5H588M571.5 530.5V532M588 530.5V532M571.5 532H588M571.5 532V533.5M571.5 533.5V535M588 550.5V545.5M571.5 535H588M571.5 535V536.5M588 535V538M580.75 538H588M580.75 538V539.5M588 538V545.5M580.75 539.5H583M580.75 539.5V541M580.75 541H583M580.75 541V542.5M583 541V542.5M580.75 542.5H583M580.75 542.5V544M583 542.5V543H584V544M580.75 544H584M580.75 544V545.5M584 544V545.5M580.75 545.5H584M586.5 545.5H588M603 468.5V467H607.5M603 468.5V470M607.5 467V468H610.5V469H611.5V470M603 470H611.5M603 470H593.5M611.5 470V471.5H615V472.5H616V474M593.5 470V471.5H590.5V472.5H589.5V474M616 474H611.5V473M616 474V475M593.5 474V472H603H611.5V473M593.5 474H589.5M593.5 474L596 473H611.5M589.5 474V475.5M589.5 475.5H601V475H616M589.5 475.5V477.5M616 475V476.5M616 476.5H602V477.5M616 476.5V478.5M602 477.5H589.5M602 477.5H613L616 478.5M589.5 477.5V479M589.5 479H614L616 480.5M589.5 479V480.5M616 480.5H607.5H606H589.5M616 480.5V483.5M616 480.5V478.5M589.5 482H612L616 483.5M589.5 482V480.5M589.5 482V484.5M616 483.5H592L589.5 484.5M616 483.5V486M589.5 484.5H614L616 486M589.5 484.5V487M616 486H591L589.5 487M589.5 487V489M616.012 489L614 488H591L589.5 489M616.012 489L616.024 490.5M589.5 491L591 490H614L616.024 490.5M589.5 491V489M616.024 490.5L616.036 492L616.141 505M616.012 497L614 496H591L589.5 497V499L591 498H614L616.024 498.5M616.012 501L614 500H591L589.5 501V503L591 502H614L616.024 502.5M589.5 511L591 510H614L616.185 510.5M589.5 511V534M589.5 534L591 533H614L616.373 534M608 534.5V536M608 534.5H614L616.381 535M608 550.5V538M608 550.5H615M608 538H615V550.5M608 538V537M616.381 535L616.373 534M616.381 537L614 536H608M608 536V537M608 537L600.5 536.875M616.141 505L614 504H591L589.5 505V507L591 506H614L616.152 506.475M616.141 505L616.152 506.475M616.173 509L616.185 510.5M616.185 510.5L616.205 513M616.205 513L614 512H591L589.5 513V515L591 514H614L616.217 514.5M616.205 513L616.217 514.5M616.217 514.5L616.237 517M616.237 517L614 516H591L589.5 517V519L591 518H614L616.253 519M616.237 517L616.253 519M616.253 519L616.273 521.5M616.273 521.5L614 521H591L589.5 522V524L591 523H614L616.289 523.5M616.273 521.5L616.289 523.5M616.289 523.5L616.317 527M616.317 527L614 526H591L589.5 527V529L591 528H614L616.333 529M616.317 527L616.333 529M616.333 529L616.373 534M281.5 550.5H232.655V548.75M281.5 550.5V548.75M281.5 550.5H282M232.655 476.407V472.5L237.827 472.564M232.655 476.407L273 544M232.655 476.407H243M232.655 476.407V494.454M273 476.407L232.655 544M273 476.407H263.5M273 476.407V493.204M267.87 472.936V545.5H263.5M267.87 472.936L263.5 472.882M262.727 545.5L263.5 472.882M262.727 545.5H263.5M262.727 545.5L273 527M257.975 472.814V545.5M257.975 472.814L252.931 472.751M257.975 472.814L263.5 472.882M257.975 545.5H254.5M257.975 545.5H259M232.655 545.5H237.827M232.655 545.5V544M232.655 545.5V547M252.931 472.751L248 472.69M252.931 472.751V476.407M252.931 545.5H248M252.931 545.5V476.407M252.931 545.5L273 510M252.931 545.5H254.5M248 545.5V472.69M248 545.5H244M248 472.69L243 472.628M243 472.628L237.827 472.564M243 472.628V476.407M243 545.5H237.827M243 545.5V476.407M243 545.5L273 493.204M243 545.5H244M237.827 472.564V545.5M232.655 544V528M273 544V528M243 476.407L273 528M243 476.407H247.966H252.931M243 476.407L232.655 494.454M273 528V527M252.931 476.407L273 510M252.931 476.407H263.5M252.931 476.407L232.655 512.5M273 510V493.204M273 510V527M263.5 476.407L273 493.204M263.5 476.407L232.655 528M232.655 528V512.5M232.655 528L244 545.5M232.655 512.5V494.454M232.655 512.5L254.5 545.5M232.655 494.454L263.5 545.5M263.5 545.5H259M232.655 547H281.5M232.655 547V547.875M281.5 547V545.5H280M281.5 547V547.875M281.5 548.75H232.655M281.5 548.75V547.875M232.655 548.75V547.875M232.655 547.875H281.5M276.644 492.5H262L259 497.5V502M276.644 492.5L280 497.529V502M276.644 492.5V412H282M259 545.5V502M259 502H280M280 502V545.5M282 412V409H303V412M282 412H303M282 412V550.5M303 412V545.5M591 492H614L616.012 493L616.024 494.5L614 494H591L589.5 495V493L591 492Z" stroke="black" stroke-opacity="0.9"/>
</svg>
